<?xml version="1.0" encoding="utf-8"?>
<!-- Generator: Adobe Illustrator 23.0.3, SVG Export Plug-In . SVG Version: 6.00 Build 0)  -->
<svg version="1.1" id="Layer_1" xmlns="http://www.w3.org/2000/svg" xmlns:xlink="http://www.w3.org/1999/xlink" x="0px" y="0px"
	 viewBox="0 0 56 57" style="enable-background:new 0 0 56 57;" xml:space="preserve">
<style type="text/css">
	.st0{fill:#999999;}
</style>
<g>
	<path class="st0" d="M31.29,4.15c-1.81-2.07-4.77-2.07-6.58,0L3.78,28.07c-1.81,2.07-1.61,3.76,0.46,3.76s3.75,2.25,3.75,5v14.78
		c0,2.75,2.25,5,5,5h5.25c2.75,0,5-2.25,5-5v-9.06c0-2.75,2.14-5,4.76-5s4.76,2.25,4.76,5v9.06c0,2.75,2.25,5,5,5h5.25
		c2.75,0,5-2.25,5-5V36.84c0-2.75,1.69-5,3.75-5s2.27-1.69,0.46-3.76L31.29,4.15z"/>
</g>
</svg>
