<?xml version="1.0" encoding="utf-8"?>
<!-- Generator: Adobe Illustrator 23.0.3, SVG Export Plug-In . SVG Version: 6.00 Build 0)  -->
<svg version="1.1" id="Layer_1" xmlns="http://www.w3.org/2000/svg" xmlns:xlink="http://www.w3.org/1999/xlink" x="0px" y="0px"
	 viewBox="0 0 800 800" style="enable-background:new 0 0 800 800;" xml:space="preserve">
<style type="text/css">
	.st0{fill:#9A77A4;}
	.st1{clip-path:url(#SVGID_2_);}
	.st2{fill:#E7E7E0;}
	.st3{clip-path:url(#SVGID_4_);}
	.st4{fill:#F0D0B4;}
	.st5{clip-path:url(#SVGID_6_);}
	.st6{clip-path:url(#SVGID_8_);}
	.st7{clip-path:url(#SVGID_10_);}
	.st8{clip-path:url(#SVGID_12_);}
	.st9{clip-path:url(#SVGID_14_);}
	.st10{fill:#B2D687;}
	.st11{clip-path:url(#SVGID_16_);}
	.st12{fill:#FFFFFF;}
	.st13{fill:#90CAB8;}
	.st14{clip-path:url(#SVGID_18_);}
	.st15{fill:#F1DBCB;}
	.st16{clip-path:url(#SVGID_20_);}
	.st17{fill:#EBDAB2;}
	.st18{clip-path:url(#SVGID_22_);}
	.st19{clip-path:url(#SVGID_24_);}
	.st20{fill:#CEBECA;}
	.st21{clip-path:url(#SVGID_26_);}
	.st22{fill:#553F37;}
	.st23{clip-path:url(#SVGID_28_);}
	.st24{clip-path:url(#SVGID_30_);}
	.st25{clip-path:url(#SVGID_32_);}
	.st26{fill:#F1E866;}
	.st27{clip-path:url(#SVGID_34_);}
	.st28{fill:#EBC19C;}
	.st29{clip-path:url(#SVGID_36_);}
	.st30{fill:#4786C6;}
	.st31{clip-path:url(#SVGID_38_);}
	.st32{fill:#E7ECF1;}
	.st33{clip-path:url(#SVGID_40_);}
	.st34{clip-path:url(#SVGID_42_);}
	.st35{clip-path:url(#SVGID_44_);}
	.st36{clip-path:url(#SVGID_46_);}
	.st37{clip-path:url(#SVGID_48_);}
	.st38{clip-path:url(#SVGID_50_);}
	.st39{fill:#4A4947;}
	.st40{clip-path:url(#SVGID_52_);}
	.st41{clip-path:url(#SVGID_54_);}
	.st42{fill:#EB6E4B;}
	.st43{clip-path:url(#SVGID_56_);}
	.st44{clip-path:url(#SVGID_58_);}
	.st45{fill:#676767;}
	.st46{fill:#989898;}
</style>
<g>
	<g>
		<g>
			<path class="st0" d="M236.51,101.74c0,52.9-42.88,95.78-95.78,95.78c-52.9,0-95.79-42.88-95.79-95.78S87.82,5.95,140.72,5.95
				C193.62,5.95,236.51,48.84,236.51,101.74"/>
		</g>
		<g>
			<g>
				<defs>
					<path id="SVGID_1_" d="M44.94,101.74c0,52.9,42.88,95.78,95.78,95.78c52.9,0,95.78-42.88,95.78-95.78S193.62,5.95,140.72,5.95
						C87.82,5.95,44.94,48.84,44.94,101.74"/>
				</defs>
				<clipPath id="SVGID_2_">
					<use xlink:href="#SVGID_1_"  style="overflow:visible;"/>
				</clipPath>
				<g class="st1">
					<path class="st2" d="M200.1,80.84c0,11.86-3.01,22.98-8.27,32.49c-1.16,2.1-2.43,4.12-3.8,6.05c-1.58,2.25-3.31,4.38-5.14,6.36
						c-1.01,1.08-2.04,2.12-3.11,3.13c-7.88,7.4-17.61,12.6-28.35,14.7c-2.04,0.4-4.11,0.69-6.23,0.86h-0.02
						c-1.46,0.12-2.93,0.18-4.42,0.18h-0.07c-1.47,0-2.95-0.06-4.41-0.18h-0.02c-2.07-0.17-4.12-0.45-6.13-0.84
						c-10.95-2.11-20.84-7.45-28.81-15.06c-1.01-0.95-1.98-1.95-2.92-2.97c-1.81-1.98-3.51-4.08-5.05-6.3
						c-1.43-2.02-2.75-4.14-3.95-6.35c-5.11-9.42-8.04-20.38-8.04-32.06c0-6.42,0.89-12.62,2.53-18.48c0.22-0.8,0.46-1.58,0.71-2.35
						c0.87-2.71,1.91-5.33,3.1-7.86c0.32-0.7,0.67-1.4,1.03-2.09c1.62-3.14,3.46-6.09,5.53-8.88c0.18-0.25,0.35-0.48,0.54-0.73
						c0.84-1.1,1.72-2.17,2.62-3.2c1.46-1.67,2.98-3.23,4.6-4.72c8.03-7.45,17.95-12.61,28.88-14.56c3.19-0.58,6.46-0.88,9.8-0.88
						h0.07c14.78,0.01,28.31,5.82,38.68,15.44c1.61,1.49,3.14,3.06,4.6,4.72c0.9,1.04,1.78,2.1,2.62,3.2
						c0.19,0.25,0.37,0.48,0.55,0.73c2.06,2.78,3.92,5.74,5.53,8.88c0.35,0.69,0.7,1.39,1.03,2.09c1.19,2.53,2.23,5.15,3.1,7.86
						c0.25,0.78,0.49,1.56,0.71,2.35C199.21,68.22,200.1,74.43,200.1,80.84"/>
				</g>
			</g>
			<g>
				<defs>
					<path id="SVGID_3_" d="M44.94,101.74c0,52.9,42.88,95.78,95.78,95.78c52.9,0,95.78-42.88,95.78-95.78S193.62,5.95,140.72,5.95
						C87.82,5.95,44.94,48.84,44.94,101.74"/>
				</defs>
				<clipPath id="SVGID_4_">
					<use xlink:href="#SVGID_3_"  style="overflow:visible;"/>
				</clipPath>
				<g class="st3">
					<path class="st4" d="M196.25,210.36H85.2v-0.01c0-5.86,0.92-11.51,2.61-16.82c0.02-0.06,0.03-0.11,0.05-0.17
						c0.1-0.32,0.2-0.64,0.3-0.95c0.13-0.41,0.28-0.82,0.44-1.22c0.16-0.43,0.32-0.86,0.49-1.28c0.06-0.17,0.13-0.35,0.2-0.51v-0.01
						c0.09-0.25,0.2-0.49,0.31-0.73c0.18-0.42,0.36-0.83,0.54-1.25c0.12-0.25,0.23-0.49,0.35-0.74c0.03-0.07,0.06-0.14,0.09-0.21
						c0.04-0.08,0.08-0.18,0.14-0.26c0.33-0.74,0.71-1.47,1.11-2.18c0.25-0.47,0.51-0.94,0.78-1.4c0.62-1.09,1.29-2.16,1.99-3.2
						c0.29-0.44,0.6-0.88,0.92-1.31c0.58-0.83,1.19-1.64,1.82-2.43c0.21-0.25,0.41-0.5,0.63-0.75c0.11-0.14,0.21-0.27,0.32-0.4
						c0.36-0.43,0.72-0.85,1.1-1.26c0.11-0.13,0.22-0.25,0.34-0.37c0.07-0.07,0.14-0.15,0.2-0.22c0.18-0.2,0.37-0.4,0.54-0.59
						c0.37-0.38,0.72-0.74,1.11-1.12v-0.01c0.03-0.03,0.07-0.07,0.1-0.09c0.23-0.23,0.46-0.45,0.69-0.66
						c0.21-0.21,0.42-0.41,0.64-0.61c0.04-0.03,0.08-0.07,0.12-0.1c0.69-0.65,1.4-1.28,2.12-1.87c0.38-0.31,0.75-0.62,1.13-0.92
						c0.4-0.31,0.8-0.62,1.2-0.92c0.52-0.39,1.06-0.76,1.6-1.14c0.53-0.38,1.07-0.73,1.62-1.09c0.13-0.09,0.28-0.18,0.43-0.26
						c0.42-0.26,0.84-0.52,1.25-0.76c0.56-0.35,1.12-0.66,1.7-0.97c0.01-0.01,0.01-0.01,0.02,0l0.01-0.01h0.01c0-0.01,0-0.01,0.01,0
						v-0.01h0.01c0.23-0.13,0.45-0.25,0.67-0.38c0.13-0.08,0.26-0.17,0.4-0.25c0.08-0.04,0.16-0.08,0.24-0.14
						c0.01,0,0.01-0.01,0.02-0.01c0.46-0.27,0.89-0.56,1.33-0.86c0.19-0.12,0.37-0.25,0.56-0.39c0.31-0.21,0.63-0.44,0.93-0.67h0.01
						c0,0,0,0,0.01,0c0.01,0,0.01-0.01,0.01-0.02c0.01-0.01,0.02-0.01,0.02-0.01l0.03-0.03c0.28-0.2,0.57-0.41,0.84-0.63l0.01-0.01
						c0.02-0.02,0.05-0.04,0.07-0.05c0.04-0.04,0.08-0.07,0.13-0.12c1.68-1.35,3.22-2.85,4.63-4.49c1.31-1.53,2.49-3.17,3.52-4.92
						c0.94-1.58,1.77-3.25,2.44-4.97c0.16-0.36,0.29-0.71,0.42-1.07c0.38-1.07,0.71-2.16,0.98-3.28c0.21-0.79,0.38-1.58,0.52-2.39
						c0.36-2.01,0.54-4.08,0.54-6.2l8.09,0.04h0.08l1.37,0.01l6.87,0.03c0,2.07,0.18,4.1,0.52,6.08c0.14,0.82,0.31,1.62,0.52,2.42
						c0.26,1.1,0.59,2.18,0.95,3.22c0.13,0.37,0.26,0.73,0.42,1.1c0.67,1.74,1.49,3.41,2.43,4.99c0.93,1.59,1.99,3.09,3.16,4.5
						c1.48,1.81,3.14,3.45,4.96,4.92c0.04,0.05,0.08,0.08,0.13,0.12c0.02,0.02,0.04,0.03,0.06,0.05l0.01,0.01
						c0.01,0.01,0.02,0.02,0.03,0.02c0.23,0.2,0.46,0.39,0.7,0.56c0.08,0.07,0.16,0.14,0.24,0.19c0.02,0.02,0.05,0.04,0.08,0.05
						c0.01,0.01,0.02,0.01,0.03,0.02c0.01,0.02,0.02,0.02,0.03,0.03c0.01,0.01,0.01,0.01,0.02,0.02c0.01,0.01,0.02,0.01,0.03,0.02
						c0.02,0.01,0.04,0.02,0.06,0.03c0.43,0.32,0.88,0.64,1.32,0.93c0.38,0.25,0.76,0.5,1.15,0.73c0.36,0.22,0.71,0.43,1.07,0.63
						c0.08,0.05,0.16,0.09,0.24,0.14c0.07,0.02,0.12,0.06,0.18,0.09l0.35,0.19c0.82,0.45,1.61,0.92,2.39,1.41
						c0.3,0.18,0.6,0.38,0.89,0.57c0.14,0.09,0.26,0.18,0.39,0.27c0.44,0.27,0.86,0.57,1.29,0.87c0.43,0.3,0.85,0.61,1.27,0.93h0.02
						c1,0.75,1.99,1.55,2.94,2.38c0.13,0.08,0.24,0.19,0.34,0.29c0.33,0.28,0.66,0.57,0.98,0.88c0.08,0.06,0.17,0.15,0.25,0.23
						c0.43,0.4,0.86,0.81,1.28,1.23c0.44,0.42,0.87,0.85,1.28,1.3c0.28,0.28,0.55,0.58,0.81,0.87c0.35,0.38,0.68,0.75,1,1.14
						c0.4,0.44,0.77,0.89,1.14,1.35c0.32,0.4,0.64,0.81,0.94,1.21c0.33,0.43,0.66,0.87,0.97,1.32c0.31,0.44,0.63,0.89,0.93,1.34
						c0.26,0.38,0.52,0.78,0.76,1.16c0.23,0.37,0.46,0.73,0.68,1.11c0.46,0.76,0.9,1.55,1.33,2.33c0.47,0.85,0.91,1.72,1.33,2.6
						c1.07,2.25,1.99,4.57,2.74,6.98c0.13,0.38,0.24,0.78,0.36,1.16c0.2,0.68,0.39,1.36,0.55,2.05c0.08,0.31,0.16,0.63,0.23,0.94
						c0.03,0.13,0.05,0.25,0.08,0.38c0.1,0.45,0.2,0.9,0.28,1.36c0.08,0.39,0.16,0.78,0.22,1.17c0.07,0.37,0.14,0.73,0.19,1.1
						c0.02,0.12,0.03,0.22,0.05,0.33c0.04,0.28,0.08,0.57,0.12,0.85c0.05,0.37,0.09,0.74,0.14,1.12c0.05,0.42,0.09,0.85,0.13,1.28
						c0.04,0.37,0.07,0.74,0.08,1.12C196.21,207.75,196.25,209.05,196.25,210.36"/>
				</g>
			</g>
			<g>
				<defs>
					<path id="SVGID_5_" d="M44.94,101.74c0,52.9,42.88,95.78,95.78,95.78c52.9,0,95.78-42.88,95.78-95.78S193.62,5.95,140.72,5.95
						C87.82,5.95,44.94,48.84,44.94,101.74"/>
				</defs>
				<clipPath id="SVGID_6_">
					<use xlink:href="#SVGID_5_"  style="overflow:visible;"/>
				</clipPath>
				<g class="st5">
					<path class="st4" d="M183.35,62.68v28.99c0,0.42-0.01,0.83-0.02,1.25c-0.01,0.38-0.02,0.74-0.04,1.12
						c-0.01,0.33-0.03,0.67-0.06,1c-0.01,0.24-0.03,0.48-0.05,0.72c-0.01,0.15-0.02,0.28-0.04,0.43c-0.02,0.26-0.04,0.53-0.08,0.8
						c-0.04,0.5-0.1,0.99-0.18,1.5c-0.01,0.13-0.03,0.25-0.05,0.38c-0.03,0.25-0.07,0.5-0.12,0.75v0.03
						c-0.01,0.05-0.02,0.09-0.02,0.15c-0.06,0.31-0.12,0.63-0.17,0.94c-0.09,0.5-0.19,1-0.29,1.5c-0.01,0.02-0.01,0.04-0.02,0.06
						c-0.01,0.07-0.02,0.15-0.04,0.22c-0.01,0.02-0.01,0.04-0.02,0.06c-0.04,0.22-0.09,0.44-0.15,0.65
						c-0.01,0.05-0.02,0.09-0.03,0.15c-0.02,0.11-0.04,0.23-0.08,0.35c-0.03,0.19-0.08,0.38-0.13,0.56
						c-0.03,0.11-0.05,0.22-0.09,0.32c-0.02,0.09-0.05,0.19-0.07,0.27c-0.22,0.86-0.47,1.7-0.73,2.53c-0.13,0.4-0.25,0.78-0.39,1.18
						c-0.01,0.04-0.03,0.08-0.04,0.13c-0.12,0.33-0.24,0.68-0.36,1.02c-0.01,0.02-0.01,0.03-0.02,0.05
						c-0.04,0.11-0.08,0.21-0.13,0.32c-0.13,0.33-0.25,0.67-0.39,1c-0.16,0.41-0.32,0.81-0.49,1.2c-0.15,0.36-0.3,0.71-0.46,1.07
						c-0.02,0.06-0.05,0.11-0.07,0.18c-0.18,0.38-0.35,0.75-0.52,1.12c-0.18,0.39-0.37,0.78-0.56,1.16
						c-0.01,0.02-0.02,0.03-0.03,0.05c-0.37,0.74-0.76,1.5-1.16,2.22l-0.56,1c-1.61,2.77-3.4,5.38-5.35,7.79
						c-0.26,0.35-0.53,0.68-0.82,1c-0.39,0.47-0.78,0.93-1.18,1.38c-0.33,0.38-0.68,0.76-1.04,1.13c-0.01,0.02-0.02,0.03-0.04,0.05
						c-1,1.08-2.03,2.1-3.08,3.07c-0.21,0.21-0.43,0.4-0.65,0.6c-0.36,0.32-0.71,0.64-1.08,0.94c-0.28,0.25-0.57,0.49-0.87,0.73
						c-0.75,0.62-1.51,1.21-2.27,1.77c-0.31,0.24-0.64,0.47-0.96,0.69c-0.52,0.38-1.06,0.73-1.59,1.08c-0.29,0.2-0.6,0.39-0.9,0.57
						c-0.05,0.03-0.09,0.06-0.15,0.08c-1.02,0.63-2.05,1.2-3.07,1.71c-0.26,0.14-0.52,0.26-0.79,0.39s-0.53,0.25-0.82,0.38
						c-0.35,0.16-0.69,0.3-1.04,0.44c-0.13,0.06-0.27,0.12-0.41,0.16c-0.41,0.17-0.83,0.32-1.24,0.46
						c-0.51,0.19-1.04,0.35-1.55,0.49c-0.36,0.1-0.72,0.2-1.08,0.28c-0.02,0.01-0.04,0.02-0.07,0.02c-0.36,0.08-0.71,0.17-1.07,0.23
						c-0.09,0.02-0.19,0.04-0.28,0.05c-0.3,0.05-0.59,0.1-0.88,0.14c-0.42,0.06-0.84,0.11-1.25,0.14c-0.15,0.02-0.28,0.03-0.43,0.03
						c-0.33,0.02-0.66,0.03-0.99,0.03h-0.04c-0.32,0-0.65-0.01-0.98-0.03c-0.13,0-0.25-0.01-0.38-0.03
						c-0.29-0.01-0.6-0.04-0.91-0.08c-0.06,0-0.13-0.01-0.2-0.02c-0.39-0.05-0.78-0.12-1.17-0.19c-0.33-0.05-0.67-0.13-1.02-0.21
						c-1.79-0.41-3.63-1.03-5.5-1.85c-1.59-0.7-3.2-1.55-4.81-2.53c-0.09-0.05-0.18-0.12-0.27-0.17c-0.71-0.44-1.43-0.91-2.14-1.4
						c-0.4-0.28-0.8-0.56-1.19-0.86c-1.25-0.91-2.48-1.9-3.7-2.97c-0.34-0.3-0.67-0.61-1-0.92c-0.33-0.3-0.67-0.62-0.99-0.92
						c-0.78-0.74-1.53-1.51-2.25-2.31c-0.05-0.04-0.09-0.09-0.14-0.14c-0.3-0.32-0.61-0.66-0.91-1c-0.84-0.94-1.65-1.92-2.43-2.93
						c-0.3-0.37-0.59-0.74-0.87-1.12c-1.06-1.4-2.06-2.87-3.01-4.39c-0.25-0.41-0.5-0.83-0.74-1.23c-0.29-0.49-0.58-0.99-0.86-1.5
						c-0.41-0.73-0.8-1.48-1.17-2.23c-0.61-1.18-1.16-2.4-1.68-3.63c-0.13-0.29-0.25-0.59-0.36-0.88c-0.17-0.38-0.31-0.76-0.45-1.14
						c-0.06-0.18-0.13-0.36-0.19-0.53c-0.15-0.38-0.28-0.75-0.41-1.13c-0.19-0.55-0.37-1.12-0.54-1.68
						c-0.17-0.54-0.32-1.09-0.47-1.64c-0.17-0.59-0.32-1.18-0.46-1.79c-0.01-0.06-0.03-0.13-0.04-0.19c0-0.02-0.01-0.03-0.01-0.05
						c-0.2-0.82-0.37-1.65-0.52-2.49c-0.06-0.31-0.12-0.63-0.16-0.95c-0.15-0.82-0.25-1.65-0.35-2.49c-0.05-0.37-0.08-0.73-0.12-1.1
						c-0.04-0.39-0.07-0.76-0.09-1.15c-0.05-0.7-0.08-1.41-0.1-2.12c-0.01-0.42-0.02-0.83-0.02-1.25V62.68
						c0-11.46,4.52-21.87,11.9-29.53c7.23-7.54,17.23-12.42,28.38-13.02c0.04-0.01,0.07-0.01,0.12-0.01
						c0.29-0.01,0.59-0.02,0.88-0.03c0.44-0.01,0.87-0.02,1.31-0.02h0.04c0.45,0,0.9,0.01,1.35,0.02h0.09
						c0.31,0.01,0.63,0.02,0.94,0.04h0.03l0.44,0.03c0.31,0.02,0.63,0.04,0.93,0.07c0.16,0.01,0.3,0.02,0.46,0.04
						c0.11,0.01,0.2,0.02,0.3,0.03c1.66,0.18,3.3,0.45,4.89,0.81c2.77,0.63,5.44,1.53,7.98,2.67c1.26,0.57,2.48,1.18,3.67,1.86
						c1.05,0.6,2.06,1.23,3.05,1.91c0.98,0.67,1.93,1.38,2.84,2.14c0.36,0.29,0.7,0.59,1.05,0.88v0.01c2.02,1.76,3.87,3.7,5.52,5.81
						c5.61,7.15,8.99,16.13,9.06,25.91C183.35,62.43,183.35,62.56,183.35,62.68"/>
				</g>
			</g>
			<g>
				<defs>
					<path id="SVGID_7_" d="M44.94,101.74c0,52.9,42.88,95.78,95.78,95.78c52.9,0,95.78-42.88,95.78-95.78S193.62,5.95,140.72,5.95
						C87.82,5.95,44.94,48.84,44.94,101.74"/>
				</defs>
				<clipPath id="SVGID_8_">
					<use xlink:href="#SVGID_7_"  style="overflow:visible;"/>
				</clipPath>
				<g class="st6">
					<path class="st2" d="M144.59,30.17c0,9.55-2.88,18.41-7.81,25.79c-8.33,12.48-22.55,20.7-38.68,20.7V59.7
						c0-11.46,4.52-21.87,11.9-29.53L144.59,30.17z"/>
				</g>
			</g>
			<g>
				<defs>
					<path id="SVGID_9_" d="M44.94,101.74c0,52.9,42.88,95.78,95.78,95.78c52.9,0,95.78-42.88,95.78-95.78S193.62,5.95,140.72,5.95
						C87.82,5.95,44.94,48.84,44.94,101.74"/>
				</defs>
				<clipPath id="SVGID_10_">
					<use xlink:href="#SVGID_9_"  style="overflow:visible;"/>
				</clipPath>
				<g class="st7">
					<path class="st2" d="M183.35,59.7v22.15c-18.72-1.42-35.69-11.09-46.56-25.89c-5.45-7.43-10.26-26.35-15.3-17.94
						c-4.23,7.07-12.79-7.39-12.86-7.85l22.27-12.21l30.94,4.7c1.05,0.6,2.06,1.23,3.05,1.91c0.98,0.67,1.93,1.38,2.84,2.14
						c0.36,0.29,0.7,0.59,1.05,0.88v0.01c2.02,1.76,3.87,3.7,5.52,5.81c5.61,7.15,8.99,16.13,9.06,25.91
						C183.35,59.45,183.35,59.57,183.35,59.7"/>
				</g>
			</g>
			<g>
				<defs>
					<path id="SVGID_11_" d="M44.94,101.74c0,52.9,42.88,95.78,95.78,95.78c52.9,0,95.78-42.88,95.78-95.78S193.62,5.95,140.72,5.95
						C87.82,5.95,44.94,48.84,44.94,101.74"/>
				</defs>
				<clipPath id="SVGID_12_">
					<use xlink:href="#SVGID_11_"  style="overflow:visible;"/>
				</clipPath>
				<g class="st8">
					<path class="st2" d="M131.79,26.47l-20.94,8.33L95.68,54.66v22h4.19l26.96-22.43l10.47-9.55h6.02l28.79,27.92
						c0,0,14.66-0.43,14.66-1.07c0-0.64-4.71-26.85-4.71-26.85l-16.49-12.88l-23.03-6.83l-9.16,1.49L131.79,26.47z"/>
				</g>
			</g>
			<g>
				<defs>
					<path id="SVGID_13_" d="M44.94,101.74c0,52.9,42.88,95.78,95.78,95.78c52.9,0,95.78-42.88,95.78-95.78S193.62,5.95,140.72,5.95
						C87.82,5.95,44.94,48.84,44.94,101.74"/>
				</defs>
				<clipPath id="SVGID_14_">
					<use xlink:href="#SVGID_13_"  style="overflow:visible;"/>
				</clipPath>
				<g class="st9">
					<path class="st10" d="M196.25,210.36H85.21c0-6.73,1.2-13.19,3.39-19.17c0.16-0.43,0.32-0.86,0.49-1.28
						c0.17-0.42,0.34-0.84,0.51-1.26c0.18-0.42,0.36-0.83,0.54-1.25c0.12-0.25,0.23-0.49,0.35-0.74c0.07-0.16,0.16-0.31,0.23-0.47
						c0.36-0.73,0.72-1.47,1.11-2.18c0.25-0.47,0.51-0.94,0.78-1.4c0.9-1.55,1.87-3.06,2.91-4.51c0.78-1.09,1.6-2.16,2.45-3.18
						c0.57-0.69,1.16-1.36,1.76-2.02c0.07-0.07,0.14-0.15,0.2-0.22c0.54-0.58,1.09-1.15,1.65-1.71c0.03-0.03,0.07-0.07,0.1-0.1
						c0.23-0.23,0.46-0.45,0.69-0.66c0.21-0.21,0.42-0.41,0.64-0.61c0.72-0.67,1.48-1.33,2.24-1.97c0.38-0.31,0.75-0.62,1.13-0.92
						c0.4-0.31,0.8-0.62,1.2-0.92c0.52-0.39,1.06-0.76,1.6-1.14c0.53-0.37,1.09-0.72,1.63-1.08c0.54-0.36,1.11-0.7,1.67-1.04
						c0.57-0.33,1.13-0.66,1.72-0.97c0.01-0.01,0.01-0.01,0.02-0.01c0-0.01,0-0.01,0.01,0l0.01-0.01c0.23-0.13,0.45-0.25,0.67-0.38
						c0.21-0.13,0.43-0.25,0.64-0.39c0.01,0,0.01-0.01,0.02-0.01c1.32-0.77,2.56-1.65,3.76-2.61c0.04,0.04,0.08,0.08,0.13,0.12
						c5.42,5.5,12.95,8.89,21.28,8.9h0.02c8.31,0,15.84-3.4,21.27-8.88l0.13-0.13c0.01,0.01,0.02,0.02,0.03,0.02
						c0.33,0.28,0.68,0.55,1.03,0.8c0.01,0.01,0.02,0.01,0.03,0.02l0.03,0.03c0.04,0.02,0.07,0.05,0.12,0.07
						c0.43,0.32,0.88,0.64,1.32,0.93c0.38,0.25,0.76,0.5,1.15,0.73c0.36,0.22,0.71,0.43,1.07,0.63c0.08,0.05,0.16,0.09,0.24,0.14
						c0.04,0.01,0.07,0.02,0.1,0.04c0.03,0.01,0.06,0.03,0.09,0.05c0.1,0.06,0.22,0.13,0.32,0.19c0.82,0.45,1.61,0.92,2.39,1.41
						c0.3,0.18,0.6,0.38,0.89,0.57c0.05,0.03,0.11,0.07,0.16,0.11c0.41,0.26,0.82,0.53,1.21,0.82c0.1,0.07,0.2,0.15,0.3,0.22
						c0.43,0.3,0.85,0.61,1.27,0.93h0.02c1,0.75,1.99,1.54,2.94,2.38c0.13,0.08,0.24,0.19,0.34,0.29c0.33,0.28,0.66,0.57,0.98,0.88
						c0.08,0.06,0.17,0.15,0.25,0.23c0.43,0.4,0.86,0.81,1.28,1.23c0.44,0.42,0.87,0.85,1.28,1.3c0.28,0.28,0.55,0.58,0.81,0.87
						c0.35,0.38,0.68,0.75,1,1.14c0.4,0.44,0.77,0.89,1.14,1.35c0.32,0.4,0.64,0.81,0.94,1.21c0.33,0.43,0.66,0.87,0.97,1.32
						c0.31,0.44,0.63,0.89,0.93,1.34c0.26,0.38,0.52,0.78,0.76,1.16c0.23,0.37,0.46,0.73,0.68,1.11c0.97,1.59,1.86,3.23,2.66,4.93
						c1.07,2.25,1.99,4.57,2.74,6.98c0.13,0.38,0.24,0.78,0.36,1.16c0.2,0.68,0.39,1.36,0.55,2.05c0.08,0.31,0.16,0.63,0.23,0.94
						c0.03,0.13,0.05,0.25,0.08,0.38c0.1,0.45,0.2,0.9,0.28,1.36c0.08,0.39,0.16,0.78,0.22,1.17c0.07,0.37,0.14,0.73,0.19,1.1
						c0.02,0.12,0.03,0.22,0.05,0.33c0.04,0.28,0.08,0.57,0.12,0.85c0.05,0.37,0.09,0.74,0.14,1.12c0.05,0.42,0.09,0.85,0.13,1.28
						c0.04,0.37,0.07,0.74,0.08,1.12C196.21,207.75,196.25,209.05,196.25,210.36"/>
				</g>
			</g>
			<g>
				<defs>
					<path id="SVGID_15_" d="M44.94,101.74c0,52.9,42.88,95.78,95.78,95.78c52.9,0,95.78-42.88,95.78-95.78S193.62,5.95,140.72,5.95
						C87.82,5.95,44.94,48.84,44.94,101.74"/>
				</defs>
				<clipPath id="SVGID_16_">
					<use xlink:href="#SVGID_15_"  style="overflow:visible;"/>
				</clipPath>
				<g class="st11">
					<path class="st12" d="M162.18,157.91c-0.02,0.07-0.04,0.13-0.07,0.2v0.01c-0.01,0.06-0.03,0.12-0.05,0.18
						c-3.62,10.89-10.79,21.65-21.29,30.46c-10.51-8.82-17.67-19.59-21.28-30.48c-0.02-0.05-0.04-0.11-0.06-0.17v-0.01
						c-0.02-0.06-0.04-0.13-0.06-0.19c0.05,0.02,0.12,0.04,0.17,0.06c0.01,0.01,0.01,0.01,0.02,0.01l0.01,0.01
						c5.63,5.04,13.07,8.1,21.21,8.1c8.14,0,15.58-3.06,21.21-8.09c0.01,0,0.01-0.01,0.01-0.01s0-0.01,0.01-0.01
						C162.05,157.96,162.12,157.93,162.18,157.91"/>
				</g>
			</g>
		</g>
	</g>
	<g>
		<g>
			<path class="st13" d="M725.83,101.74c0,52.9-42.88,95.78-95.78,95.78c-52.9,0-95.78-42.88-95.78-95.78s42.88-95.78,95.78-95.78
				S725.83,48.84,725.83,101.74"/>
		</g>
		<g>
			<g>
				<defs>
					<path id="SVGID_17_" d="M534.27,101.74c0,52.9,42.88,95.78,95.78,95.78c52.9,0,95.79-42.88,95.79-95.78
						c0-52.9-42.88-95.78-95.79-95.78C577.15,5.95,534.27,48.84,534.27,101.74"/>
				</defs>
				<clipPath id="SVGID_18_">
					<use xlink:href="#SVGID_17_"  style="overflow:visible;"/>
				</clipPath>
				<g class="st14">
					<path class="st15" d="M685.54,212.58v0.01H574.49v-0.01c0-15.4,6.26-29.33,16.39-39.38c0.47-0.47,0.94-0.92,1.43-1.37
						c0.72-0.67,1.48-1.33,2.24-1.97c0.76-0.63,1.54-1.24,2.33-1.83c1.05-0.78,2.14-1.52,3.23-2.23c1.1-0.71,2.23-1.38,3.39-2.01
						c0.02-0.02,0.04-0.02,0.04-0.02c0.45-0.25,0.89-0.5,1.33-0.78c1.32-0.78,2.56-1.65,3.76-2.61c5.06-4.02,8.97-9.42,11.2-15.62
						v-0.01c1.33-3.7,2.05-7.68,2.05-11.85l8.15,0.03l8.26,0.04c0,4.11,0.7,8.07,2,11.73c2.21,6.23,6.09,11.63,11.15,15.67
						l0.01,0.01c0.35,0.28,0.7,0.55,1.06,0.82c0.49,0.37,0.99,0.72,1.5,1.06c0.38,0.25,0.76,0.5,1.15,0.73
						c0.43,0.26,0.87,0.52,1.31,0.77c0.04,0.01,0.07,0.02,0.1,0.04c0.03,0.02,0.06,0.04,0.09,0.06c1.29,0.71,2.54,1.47,3.76,2.26
						c0.41,0.26,0.82,0.54,1.21,0.82c0.52,0.38,1.06,0.75,1.57,1.15h0.02C676.78,178.22,685.54,194.36,685.54,212.58"/>
				</g>
			</g>
			<g>
				<defs>
					<path id="SVGID_19_" d="M534.27,101.74c0,52.9,42.88,95.78,95.78,95.78c52.9,0,95.79-42.88,95.79-95.78
						c0-52.9-42.88-95.78-95.79-95.78C577.15,5.95,534.27,48.84,534.27,101.74"/>
				</defs>
				<clipPath id="SVGID_20_">
					<use xlink:href="#SVGID_19_"  style="overflow:visible;"/>
				</clipPath>
				<g class="st16">
					<path class="st17" d="M685.54,212.58H574.49c0-15.4,6.26-29.33,16.39-39.38c0.47-0.47,0.94-0.92,1.43-1.37
						c0.72-0.67,1.48-1.33,2.24-1.97c0.76-0.64,1.54-1.26,2.33-1.84c1.05-0.78,2.14-1.52,3.23-2.22c1.1-0.71,2.23-1.38,3.39-2.01
						c0.02-0.02,0.04-0.02,0.04-0.02c0.45-0.25,0.89-0.5,1.33-0.78c1.32-0.78,2.56-1.65,3.76-2.61c5.44,5.57,13.01,9,21.41,9.01
						h0.02c8.37,0,15.95-3.45,21.4-9c0.35,0.28,0.7,0.55,1.06,0.82c0.49,0.37,0.99,0.72,1.5,1.06c0.38,0.25,0.76,0.5,1.15,0.73
						c0.43,0.27,0.87,0.52,1.31,0.77c0.04,0.01,0.07,0.02,0.1,0.04c0.03,0.01,0.06,0.03,0.09,0.05c1.29,0.71,2.54,1.47,3.76,2.27
						c0.41,0.26,0.82,0.54,1.21,0.82c0.52,0.38,1.06,0.75,1.57,1.15h0.02C676.78,178.22,685.54,194.36,685.54,212.58"/>
				</g>
			</g>
			<g>
				<defs>
					<path id="SVGID_21_" d="M534.27,101.74c0,52.9,42.88,95.78,95.78,95.78c52.9,0,95.79-42.88,95.79-95.78
						c0-52.9-42.88-95.78-95.79-95.78C577.15,5.95,534.27,48.84,534.27,101.74"/>
				</defs>
				<clipPath id="SVGID_22_">
					<use xlink:href="#SVGID_21_"  style="overflow:visible;"/>
				</clipPath>
				<g class="st18">
					<path class="st15" d="M672.63,59.01v34.74c0,0.46-0.01,0.92-0.02,1.38c-0.01,0.28-0.02,0.56-0.03,0.85
						c-0.02,0.5-0.05,1-0.09,1.51c-1.63,22.25-17.65,40.74-32.18,47.22c-3.59,1.59-7.09,2.45-10.26,2.46h-0.03
						c-3.15,0-6.61-0.85-10.17-2.41v-0.01c-14.56-6.42-30.65-24.96-32.3-47.26c-0.04-0.5-0.07-1-0.09-1.51
						c-0.01-0.28-0.02-0.57-0.03-0.85c-0.01-0.46-0.02-0.92-0.02-1.38V59.01H672.63z"/>
				</g>
			</g>
			<g>
				<defs>
					<path id="SVGID_23_" d="M534.27,101.74c0,52.9,42.88,95.78,95.78,95.78c52.9,0,95.79-42.88,95.79-95.78
						c0-52.9-42.88-95.78-95.79-95.78C577.15,5.95,534.27,48.84,534.27,101.74"/>
				</defs>
				<clipPath id="SVGID_24_">
					<use xlink:href="#SVGID_23_"  style="overflow:visible;"/>
				</clipPath>
				<g class="st19">
					<path class="st20" d="M651.46,160.39c-3.58,11.02-10.79,21.93-21.42,30.85c-10.62-8.92-17.83-19.83-21.41-30.85
						c0.05,0.02,0.12,0.04,0.17,0.06c5.63,5.05,13.08,8.12,21.24,8.12c8.15,0,15.6-3.07,21.23-8.11
						C651.34,160.44,651.4,160.41,651.46,160.39"/>
				</g>
			</g>
			<g>
				<defs>
					<path id="SVGID_25_" d="M534.27,101.74c0,52.9,42.88,95.78,95.78,95.78c52.9,0,95.79-42.88,95.79-95.78
						c0-52.9-42.88-95.78-95.79-95.78C577.15,5.95,534.27,48.84,534.27,101.74"/>
				</defs>
				<clipPath id="SVGID_26_">
					<use xlink:href="#SVGID_25_"  style="overflow:visible;"/>
				</clipPath>
				<g class="st21">
					<path class="st22" d="M667.44,71.42c1.12,7.3-14.74,14.85-35.4,16.87c-20.67,2.02-38.33-2.26-39.44-9.55
						c-1.12-7.3,14.74-14.85,35.41-16.87C648.66,59.85,666.32,64.13,667.44,71.42"/>
				</g>
			</g>
			<g>
				<defs>
					<path id="SVGID_27_" d="M534.27,101.74c0,52.9,42.88,95.78,95.78,95.78c52.9,0,95.79-42.88,95.79-95.78
						c0-52.9-42.88-95.78-95.79-95.78C577.15,5.95,534.27,48.84,534.27,101.74"/>
				</defs>
				<clipPath id="SVGID_28_">
					<use xlink:href="#SVGID_27_"  style="overflow:visible;"/>
				</clipPath>
				<g class="st23">
					<path class="st22" d="M672.63,59.01V69.7H587.4V59.01h0.03c0.52-12.27,7.46-35.21,42.59-35.21h0.02
						c35.09,0.01,42.03,22.94,42.55,35.21H672.63z"/>
				</g>
			</g>
			<g>
				<defs>
					<path id="SVGID_29_" d="M534.27,101.74c0,52.9,42.88,95.78,95.78,95.78c52.9,0,95.79-42.88,95.79-95.78
						c0-52.9-42.88-95.78-95.79-95.78C577.15,5.95,534.27,48.84,534.27,101.74"/>
				</defs>
				<clipPath id="SVGID_30_">
					<use xlink:href="#SVGID_29_"  style="overflow:visible;"/>
				</clipPath>
				<g class="st24">
					<path class="st22" d="M612.94,75.62c-0.32-0.01-0.65-0.02-0.97-0.02c-6.64,0-12.66,2.64-17.08,6.92
						c-4.01,3.87-6.7,9.12-7.34,14.98c-0.04-0.5-0.07-1-0.09-1.51c-0.01-0.28-0.02-0.56-0.03-0.85c-0.01-0.46-0.02-0.92-0.02-1.38
						V59.01h18.15c1.86,1.81,3.43,3.93,4.65,6.25c0.73,1.4,1.33,2.89,1.79,4.44C612.53,71.59,612.86,73.58,612.94,75.62"/>
				</g>
			</g>
			<g>
				<defs>
					<path id="SVGID_31_" d="M534.27,101.74c0,52.9,42.88,95.78,95.78,95.78c52.9,0,95.79-42.88,95.79-95.78
						c0-52.9-42.88-95.78-95.79-95.78C577.15,5.95,534.27,48.84,534.27,101.74"/>
				</defs>
				<clipPath id="SVGID_32_">
					<use xlink:href="#SVGID_31_"  style="overflow:visible;"/>
				</clipPath>
				<g class="st25">
					<path class="st22" d="M647.09,75.62c0.32-0.01,0.65-0.02,0.97-0.02c12.67,0,23.09,9.59,24.42,21.9
						c0.11-1.24,0.15-2.48,0.15-3.74V59.01h-18.15C650.13,63.25,647.34,69.12,647.09,75.62"/>
				</g>
			</g>
		</g>
	</g>
	<g>
		<g>
			<path class="st26" d="M490.58,644c0,52.9-42.88,95.78-95.78,95.78c-52.9,0-95.78-42.88-95.78-95.78s42.88-95.78,95.79-95.78
				C447.7,548.22,490.58,591.1,490.58,644"/>
		</g>
		<g>
			<g>
				<defs>
					<path id="SVGID_33_" d="M299.01,644c0,52.9,42.88,95.78,95.78,95.78c52.9,0,95.78-42.88,95.78-95.78
						c0-52.9-42.88-95.79-95.78-95.79S299.01,591.1,299.01,644"/>
				</defs>
				<clipPath id="SVGID_34_">
					<use xlink:href="#SVGID_33_"  style="overflow:visible;"/>
				</clipPath>
				<g class="st27">
					<path class="st28" d="M452.45,756.38H341.39c0-6.27,1.04-12.31,2.96-17.93c0.35-1.02,0.72-2.02,1.13-3.02v-0.01
						c0.37-0.92,0.78-1.83,1.2-2.72c0.03-0.07,0.06-0.13,0.09-0.21c1.16-2.45,2.51-4.81,4.02-7.04c0.86-1.28,1.78-2.53,2.74-3.74
						c0.67-0.83,1.35-1.63,2.05-2.41c0.35-0.4,0.71-0.78,1.08-1.17c0.37-0.38,0.73-0.75,1.11-1.13v-0.01
						c0.02-0.01,0.03-0.03,0.05-0.04c0.02-0.01,0.03-0.03,0.05-0.04v-0.01c1.84-1.84,3.82-3.53,5.9-5.08
						c1.06-0.78,2.12-1.52,3.23-2.23c0.14-0.09,0.28-0.18,0.43-0.26c0.16-0.09,0.31-0.2,0.47-0.29c0.16-0.09,0.31-0.19,0.47-0.28
						c0.31-0.19,0.63-0.38,0.95-0.56c0.02-0.01,0.05-0.03,0.07-0.04c0.17-0.09,0.33-0.19,0.5-0.28c0.16-0.09,0.31-0.19,0.48-0.28
						h0.01h0.01v-0.01h0.01h0.01h0.01v-0.01c0.13-0.07,0.28-0.15,0.42-0.23c0.08-0.05,0.17-0.1,0.25-0.15
						c0.07-0.04,0.13-0.08,0.21-0.13c0.06-0.04,0.13-0.08,0.2-0.13c0.08-0.04,0.16-0.08,0.24-0.14c0.29-0.18,0.59-0.37,0.88-0.56
						c0.07-0.04,0.14-0.09,0.21-0.13c0.21-0.14,0.43-0.28,0.64-0.43c0.12-0.09,0.23-0.17,0.35-0.25c0.26-0.18,0.52-0.37,0.77-0.56
						c0,0,0.01,0,0.01-0.01c0.01-0.01,0.02-0.02,0.03-0.02c0.01-0.01,0.02-0.01,0.03-0.02c0.03-0.02,0.05-0.04,0.08-0.06
						c0.25-0.19,0.51-0.38,0.75-0.57h0.01v-0.01c1.75-1.39,3.37-2.95,4.83-4.66c1.31-1.53,2.49-3.17,3.52-4.92
						c1.14-1.9,2.11-3.93,2.86-6.04c0.38-1.07,0.71-2.16,0.98-3.28c0-0.02,0.01-0.03,0.01-0.05c0.21-0.76,0.37-1.55,0.51-2.33
						c0.36-2.01,0.54-4.08,0.54-6.2l8.09,0.04h0.08l0.97,0.01h0.4l6.87,0.03c0,2.07,0.18,4.1,0.52,6.08
						c0.13,0.77,0.29,1.55,0.49,2.3c0.01,0.04,0.02,0.07,0.03,0.12c0.26,1.1,0.59,2.18,0.95,3.22c0.75,2.14,1.71,4.18,2.85,6.09
						c0.93,1.59,1.99,3.09,3.16,4.5c1.53,1.87,3.26,3.57,5.15,5.09h0.01l0.01,0.01c0.18,0.16,0.36,0.3,0.53,0.43
						c0.16,0.12,0.32,0.24,0.48,0.37c0.02,0.02,0.04,0.03,0.06,0.04v0.01c0.01,0.01,0.02,0.02,0.04,0.03
						c0.04,0.02,0.08,0.04,0.12,0.07c0.02,0.01,0.04,0.02,0.06,0.04c0.03,0.02,0.05,0.04,0.08,0.07c0.12,0.08,0.23,0.17,0.35,0.24
						c0.19,0.14,0.38,0.27,0.58,0.4c0.08,0.06,0.16,0.12,0.24,0.17l0.35,0.23c0.21,0.14,0.42,0.27,0.63,0.4
						c0.05,0.03,0.12,0.06,0.18,0.1l0.38,0.22c0.01,0.02,0.02,0.03,0.03,0.02c0,0,0,0.01,0.01,0.01c0.03,0.02,0.05,0.04,0.08,0.05
						c0.26,0.16,0.53,0.31,0.81,0.46c0.07,0.02,0.13,0.06,0.19,0.09c0.07,0.04,0.15,0.08,0.22,0.13l0.12,0.05
						c0.07,0.04,0.15,0.08,0.21,0.13c0.28,0.16,0.55,0.31,0.83,0.47c0.45,0.26,0.91,0.53,1.35,0.82c0.22,0.14,0.43,0.26,0.64,0.41
						c0.22,0.14,0.43,0.27,0.64,0.43c0.87,0.56,1.72,1.16,2.54,1.79v0.01h0.02c0.76,0.58,1.53,1.17,2.26,1.79
						c0.27,0.22,0.55,0.46,0.83,0.69c0.94,0.81,1.84,1.64,2.72,2.52c0.06,0.05,0.12,0.1,0.18,0.17v0.01
						c2.57,2.55,4.88,5.35,6.9,8.36c1.54,2.28,2.91,4.69,4.1,7.2C450.54,739.84,452.45,747.88,452.45,756.38"/>
				</g>
			</g>
			<g>
				<defs>
					<path id="SVGID_35_" d="M299.01,644c0,52.9,42.88,95.78,95.78,95.78c52.9,0,95.78-42.88,95.78-95.78
						c0-52.9-42.88-95.79-95.78-95.79S299.01,591.1,299.01,644"/>
				</defs>
				<clipPath id="SVGID_36_">
					<use xlink:href="#SVGID_35_"  style="overflow:visible;"/>
				</clipPath>
				<g class="st29">
					<path class="st30" d="M452.45,756.38H341.39c0-6.27,1.04-12.31,2.96-17.93c0.35-1.02,0.72-2.02,1.13-3.02v-0.01
						c0.37-0.92,0.78-1.83,1.2-2.72c0.03-0.07,0.06-0.13,0.09-0.21c1.16-2.45,2.51-4.81,4.02-7.04c0.86-1.28,1.78-2.53,2.74-3.74
						c0.67-0.83,1.35-1.63,2.05-2.41c0.35-0.4,0.71-0.78,1.08-1.17c0.37-0.38,0.73-0.75,1.11-1.13c0.02-0.02,0.03-0.03,0.05-0.05
						c0.02-0.01,0.03-0.03,0.05-0.04c1.84-1.84,3.82-3.53,5.9-5.08c1.06-0.79,2.12-1.52,3.23-2.23c0.14-0.09,0.28-0.18,0.43-0.26
						c0.16-0.11,0.31-0.21,0.47-0.3c0.16-0.09,0.31-0.19,0.47-0.28c0.31-0.19,0.63-0.38,0.95-0.56c0.02-0.01,0.05-0.03,0.07-0.04
						c0.17-0.09,0.33-0.19,0.5-0.28c0.16-0.09,0.31-0.19,0.48-0.27c0-0.01,0.01-0.01,0.01-0.01h0.01h0.01h0.01v-0.01h0.01
						c0.15-0.08,0.28-0.17,0.42-0.24c0.08-0.05,0.17-0.1,0.25-0.15c0.07-0.04,0.13-0.08,0.21-0.13c0.06-0.03,0.13-0.07,0.2-0.12
						c0.08-0.04,0.16-0.08,0.24-0.13c0.29-0.18,0.59-0.37,0.88-0.56c0.07-0.04,0.14-0.09,0.21-0.15c0.21-0.14,0.43-0.28,0.64-0.43
						c0.12-0.09,0.23-0.17,0.35-0.25c0.26-0.18,0.52-0.37,0.77-0.56c0,0,0.01,0,0.01-0.01c0.01,0,0.02-0.01,0.03-0.01
						c0.01-0.01,0.02-0.02,0.03-0.03c0.03-0.02,0.05-0.04,0.08-0.06c0.24-0.19,0.49-0.39,0.73-0.59l0.01-0.01l0.01,0.02h0.01
						c0.6,0.61,1.2,1.19,1.85,1.75c0.31,0.27,0.64,0.53,0.96,0.8c0.01,0.02,0.01,0.02,0.02,0.01c0.3,0.24,0.6,0.47,0.9,0.7
						c0.07,0.05,0.14,0.11,0.21,0.15c0.31,0.22,0.63,0.44,0.94,0.65c0.71,0.47,1.44,0.91,2.19,1.32c0.38,0.21,0.75,0.41,1.14,0.6
						c0.4,0.2,0.8,0.38,1.19,0.54c0.05,0.04,0.11,0.06,0.16,0.07c0.45,0.2,0.9,0.39,1.36,0.56c0.46,0.17,0.93,0.34,1.4,0.48
						c0.36,0.12,0.71,0.22,1.08,0.31c0.32,0.09,0.65,0.18,0.97,0.25c0.07,0.03,0.15,0.04,0.23,0.05c0.02,0.01,0.05,0.01,0.07,0.01
						c1.04,0.24,2.09,0.42,3.18,0.56c0.38,0.04,0.75,0.08,1.14,0.12c0.71,0.06,1.42,0.08,2.15,0.09h0.46c0.17,0,0.33,0,0.5-0.01
						c0.01,0.01,0.02,0.01,0.03,0c0.08,0.01,0.17,0.01,0.25,0c0.02,0.01,0.04,0,0.06-0.01c0.12,0,0.22-0.01,0.33-0.02
						c0.49-0.02,0.97-0.05,1.46-0.09c0.42-0.04,0.84-0.09,1.25-0.15c0.06,0,0.12,0,0.17-0.01c0.05-0.01,0.11-0.01,0.16-0.03
						c0.33-0.04,0.64-0.11,0.95-0.16c0.03,0,0.07-0.01,0.11-0.01c0.05,0,0.1-0.01,0.15-0.03c0.04-0.01,0.08-0.02,0.13-0.03
						c0.13-0.02,0.24-0.05,0.37-0.07c0.17-0.04,0.33-0.07,0.5-0.1c0.02,0,0.03-0.01,0.05-0.01c0.13-0.04,0.29-0.06,0.43-0.11
						c0.46-0.12,0.92-0.23,1.37-0.37c0.45-0.14,0.9-0.27,1.34-0.43c0.69-0.23,1.36-0.49,2.02-0.78c0.44-0.19,0.86-0.38,1.29-0.6
						c0.37-0.17,0.72-0.36,1.07-0.55c0.26-0.14,0.51-0.28,0.76-0.43c0.28-0.15,0.56-0.31,0.83-0.49c0.07-0.04,0.15-0.08,0.22-0.13
						c0.23-0.15,0.45-0.29,0.67-0.45c0.13-0.07,0.24-0.16,0.36-0.24c0.07-0.04,0.14-0.09,0.2-0.13c0.3-0.21,0.6-0.43,0.89-0.66
						c0.01,0,0.02,0,0.02-0.01c0.06-0.04,0.14-0.09,0.2-0.15c0.14-0.1,0.28-0.22,0.42-0.35c0.22-0.17,0.44-0.35,0.65-0.52
						c0.7-0.59,1.37-1.21,2.01-1.86l0.02-0.02l0.01,0.01c0.18,0.15,0.36,0.28,0.53,0.43c0.16,0.12,0.32,0.24,0.48,0.37
						c0.02,0.02,0.04,0.03,0.06,0.05c0.01,0.02,0.02,0.03,0.04,0.04c0.04,0.02,0.08,0.04,0.12,0.07c0.02,0.01,0.04,0.02,0.06,0.04
						c0.03,0.02,0.05,0.04,0.08,0.06c0.12,0.08,0.23,0.17,0.35,0.24c0.19,0.15,0.38,0.28,0.58,0.41c0.08,0.06,0.16,0.12,0.24,0.17
						c0.12,0.08,0.23,0.15,0.35,0.22c0.21,0.14,0.42,0.27,0.63,0.4c0.06,0.04,0.12,0.07,0.18,0.12c0.13,0.08,0.27,0.17,0.41,0.23
						c0,0,0,0.01,0.01,0.01c0.03,0.02,0.05,0.04,0.08,0.05c0.26,0.16,0.53,0.31,0.81,0.46c0.07,0.02,0.13,0.06,0.19,0.09
						c0.07,0.04,0.15,0.08,0.22,0.13c0.04,0.02,0.08,0.04,0.12,0.06c0.07,0.04,0.15,0.08,0.21,0.13c0.1,0.06,0.2,0.12,0.3,0.18h0.01
						c0.02,0.01,0.05,0.03,0.07,0.04c0.16,0.08,0.29,0.17,0.44,0.25c0.45,0.26,0.91,0.53,1.35,0.82c0.22,0.13,0.43,0.26,0.64,0.4
						c0.22,0.15,0.43,0.29,0.64,0.44c0.87,0.56,1.72,1.16,2.54,1.79h0.02c0.76,0.58,1.53,1.17,2.26,1.79
						c0.28,0.23,0.55,0.46,0.83,0.7c0.94,0.81,1.84,1.64,2.72,2.52c0.06,0.05,0.12,0.1,0.18,0.17c2.57,2.55,4.88,5.35,6.9,8.36
						c1.54,2.28,2.91,4.69,4.1,7.2C450.54,739.84,452.45,747.88,452.45,756.38"/>
				</g>
			</g>
			<g>
				<defs>
					<path id="SVGID_37_" d="M299.01,644c0,52.9,42.88,95.78,95.78,95.78c52.9,0,95.78-42.88,95.78-95.78
						c0-52.9-42.88-95.79-95.78-95.79S299.01,591.1,299.01,644"/>
				</defs>
				<clipPath id="SVGID_38_">
					<use xlink:href="#SVGID_37_"  style="overflow:visible;"/>
				</clipPath>
				<g class="st31">
					<path class="st32" d="M403.56,712.46c-0.17,0.03-0.33,0.06-0.5,0.11c-0.12,0.02-0.24,0.05-0.36,0.07
						c-0.04,0.01-0.08,0.02-0.13,0.03c-0.04,0.02-0.09,0.03-0.15,0.03c-0.03,0-0.07,0.01-0.11,0.01c-0.31,0.05-0.63,0.12-0.95,0.16
						c-0.05,0.02-0.11,0.02-0.16,0.03c-0.05,0.01-0.1,0.01-0.17,0.01c-0.41,0.05-0.83,0.1-1.25,0.15c-0.48,0.04-0.96,0.07-1.46,0.09
						c-0.11,0.01-0.22,0.02-0.33,0.02c-0.02,0.01-0.04,0.02-0.06,0.01c-0.08,0.01-0.17,0.01-0.25,0c-0.01,0.01-0.02,0.01-0.03,0
						c-0.17,0.01-0.33,0.01-0.5,0.01h-0.23h-0.01h-0.22c-0.72-0.01-1.43-0.03-2.15-0.09c-0.39-0.03-0.76-0.07-1.14-0.12
						c-1.09-0.14-2.15-0.31-3.18-0.56l1.92,7.32l4.76,18.05v0.04l0.01-0.02v-0.02l4.76-18.06l1.93-7.29
						C403.59,712.45,403.58,712.46,403.56,712.46"/>
				</g>
			</g>
			<g>
				<defs>
					<path id="SVGID_39_" d="M299.01,644c0,52.9,42.88,95.78,95.78,95.78c52.9,0,95.78-42.88,95.78-95.78
						c0-52.9-42.88-95.79-95.78-95.79S299.01,591.1,299.01,644"/>
				</defs>
				<clipPath id="SVGID_40_">
					<use xlink:href="#SVGID_39_"  style="overflow:visible;"/>
				</clipPath>
				<g class="st33">
					<g>
						<g>
							<defs>
								<rect id="SVGID_41_" x="390.22" y="712.43" width="13.39" height="25.41"/>
							</defs>
							<clipPath id="SVGID_42_">
								<use xlink:href="#SVGID_41_"  style="overflow:visible;"/>
							</clipPath>
							<g class="st34">
								<path class="st32" d="M403.56,712.46c-0.17,0.03-0.33,0.06-0.5,0.11c-0.12,0.02-0.24,0.05-0.36,0.07
									c-0.04,0.01-0.08,0.02-0.13,0.03c-0.04,0.02-0.09,0.03-0.15,0.03c-0.03,0-0.07,0.01-0.11,0.01
									c-0.31,0.05-0.63,0.12-0.95,0.16c-0.05,0.02-0.11,0.02-0.16,0.03c-0.05,0.01-0.1,0.01-0.17,0.01
									c-0.41,0.05-0.83,0.1-1.25,0.15c-0.48,0.04-0.96,0.07-1.46,0.09c-0.11,0.01-0.22,0.02-0.33,0.02
									c-0.02,0.01-0.04,0.02-0.06,0.01c-0.08,0.01-0.17,0.01-0.25,0c-0.01,0.01-0.02,0.01-0.03,0c-0.17,0.01-0.33,0.01-0.5,0.01
									h-0.23h-0.01h-0.22c-0.72-0.01-1.43-0.03-2.15-0.09c-0.39-0.03-0.76-0.07-1.14-0.12c-1.09-0.14-2.15-0.31-3.18-0.56
									l1.92,7.32l4.76,18.05v0.04l0.01-0.02v-0.02l4.76-18.06l1.93-7.29C403.59,712.45,403.58,712.46,403.56,712.46"/>
							</g>
						</g>
					</g>
				</g>
			</g>
			<g>
				<defs>
					<path id="SVGID_43_" d="M299.01,644c0,52.9,42.88,95.78,95.78,95.78c52.9,0,95.78-42.88,95.78-95.78
						c0-52.9-42.88-95.79-95.78-95.79S299.01,591.1,299.01,644"/>
				</defs>
				<clipPath id="SVGID_44_">
					<use xlink:href="#SVGID_43_"  style="overflow:visible;"/>
				</clipPath>
				<g class="st35">
					<path class="st32" d="M424.51,708.2c-5.09,4.74-18.22,17.01-18.36,17.24c-0.09,0.14-2.24-2.7-4.46-5.7
						c-2.01-2.72-4.09-5.58-4.76-6.51l-0.01-0.01c0-0.01,0-0.01-0.01-0.02h0.25c0.17,0,0.33,0,0.5-0.01c0.01,0.01,0.02,0.01,0.03,0
						c0.08,0.01,0.17,0.01,0.25,0c0.02,0.01,0.04,0,0.06-0.01c0.12,0,0.22-0.01,0.33-0.02c0.49-0.02,0.97-0.05,1.46-0.09
						c0.42-0.04,0.84-0.09,1.25-0.15c0.06,0,0.12,0,0.17-0.01c0.05-0.01,0.1-0.01,0.16-0.03c0.32-0.04,0.64-0.1,0.95-0.16
						c0.03,0,0.07-0.01,0.11-0.01c0.05,0,0.11-0.01,0.15-0.03c0.04-0.01,0.08-0.02,0.13-0.03c0.13-0.02,0.24-0.05,0.37-0.07
						c0.17-0.04,0.34-0.07,0.5-0.11c0.02,0,0.03-0.01,0.05-0.01c0.13-0.04,0.29-0.06,0.43-0.11c0.46-0.11,0.92-0.23,1.37-0.37
						c0.45-0.13,0.9-0.27,1.34-0.43c0.69-0.23,1.36-0.49,2.02-0.77c0.44-0.19,0.86-0.38,1.29-0.6c0.37-0.17,0.72-0.36,1.07-0.56
						c0.26-0.13,0.51-0.28,0.77-0.43c0.28-0.14,0.55-0.31,0.83-0.49c0.07-0.04,0.15-0.08,0.22-0.13c0.23-0.15,0.45-0.29,0.67-0.45
						c0.13-0.07,0.24-0.16,0.35-0.24c0.07-0.04,0.14-0.09,0.2-0.14c0.3-0.21,0.6-0.43,0.89-0.66c0.01,0,0.02,0,0.02-0.01
						c0.06-0.04,0.14-0.09,0.2-0.15c0.13-0.11,0.28-0.22,0.42-0.35c0.22-0.17,0.44-0.35,0.65-0.52c0.7-0.59,1.37-1.22,2.01-1.86
						l0.02-0.02l0.01,0.01c0.36,0.29,0.71,0.56,1.08,0.85c0.01,0.02,0.02,0.03,0.04,0.04c0.04,0.02,0.08,0.04,0.11,0.07
						c0.02,0.01,0.04,0.02,0.06,0.04c0.32,0.24,0.66,0.48,1,0.71c0.08,0.06,0.16,0.12,0.24,0.17c0.38,0.25,0.76,0.49,1.15,0.73
						c0.43,0.26,0.87,0.51,1.31,0.75c0.07,0.02,0.13,0.06,0.19,0.09c0.12,0.06,0.23,0.13,0.33,0.2c0.07,0.04,0.15,0.08,0.21,0.13
						c0.11,0.06,0.2,0.11,0.3,0.18h0.01C424.46,708.17,424.49,708.19,424.51,708.2"/>
				</g>
			</g>
			<g>
				<defs>
					<path id="SVGID_45_" d="M299.01,644c0,52.9,42.88,95.78,95.78,95.78c52.9,0,95.78-42.88,95.78-95.78
						c0-52.9-42.88-95.79-95.78-95.79S299.01,591.1,299.01,644"/>
				</defs>
				<clipPath id="SVGID_46_">
					<use xlink:href="#SVGID_45_"  style="overflow:visible;"/>
				</clipPath>
				<g class="st36">
					<path class="st32" d="M396.95,713.2c-0.01,0.01-0.02,0.02-0.02,0.03c0,0,0,0.01-0.01,0.01c0,0,0,0.01-0.01,0.01
						c-0.67,0.94-2.75,3.8-4.75,6.5c-2.22,3-4.36,5.83-4.45,5.69c-0.15-0.23-13.29-12.51-18.36-17.25c0.02-0.01,0.05-0.03,0.07-0.04
						c0.17-0.09,0.33-0.19,0.5-0.28c0.16-0.09,0.31-0.19,0.48-0.27c0-0.01,0.01-0.01,0.01-0.01h0.01h0.01h0.01v-0.01h0.01
						c0.15-0.08,0.28-0.17,0.42-0.24c0.08-0.05,0.17-0.1,0.25-0.15c0.07-0.04,0.13-0.08,0.21-0.13c0.06-0.03,0.13-0.07,0.2-0.12
						c0.08-0.04,0.16-0.08,0.24-0.13c0.29-0.18,0.59-0.37,0.88-0.56c0.07-0.04,0.14-0.09,0.21-0.15c0.21-0.14,0.43-0.28,0.64-0.43
						c0.12-0.09,0.23-0.17,0.35-0.25c0.26-0.18,0.52-0.37,0.77-0.56c0,0,0.01,0,0.01-0.01c0.01,0,0.02-0.01,0.03-0.01
						c0.01-0.01,0.02-0.02,0.03-0.03c0.03-0.02,0.05-0.04,0.08-0.06c0.24-0.19,0.49-0.39,0.73-0.59l0.01-0.01l0.01,0.02h0.01
						c0.6,0.61,1.2,1.19,1.85,1.75c0.31,0.27,0.64,0.53,0.96,0.8c0.01,0.02,0.01,0.02,0.02,0.01c0.3,0.24,0.6,0.47,0.9,0.7
						c0.07,0.05,0.14,0.11,0.21,0.15c0.31,0.22,0.63,0.44,0.94,0.65c0.71,0.47,1.44,0.91,2.19,1.32c0.38,0.21,0.75,0.41,1.14,0.6
						c0.4,0.2,0.8,0.38,1.19,0.54c0.05,0.04,0.11,0.06,0.16,0.07c0.45,0.2,0.9,0.39,1.36,0.56c0.46,0.17,0.93,0.33,1.4,0.48
						c0.36,0.12,0.71,0.22,1.08,0.31c0.32,0.09,0.65,0.18,0.97,0.25c0.07,0.03,0.15,0.04,0.23,0.05c0.02,0.01,0.05,0.01,0.07,0.01
						c1.04,0.24,2.09,0.42,3.18,0.56c0.38,0.04,0.75,0.08,1.14,0.12c0.71,0.06,1.42,0.08,2.15,0.09L396.95,713.2L396.95,713.2z"/>
				</g>
			</g>
			<g>
				<defs>
					<path id="SVGID_47_" d="M299.01,644c0,52.9,42.88,95.78,95.78,95.78c52.9,0,95.78-42.88,95.78-95.78
						c0-52.9-42.88-95.79-95.78-95.79S299.01,591.1,299.01,644"/>
				</defs>
				<clipPath id="SVGID_48_">
					<use xlink:href="#SVGID_47_"  style="overflow:visible;"/>
				</clipPath>
				<g class="st37">
					<path class="st28" d="M439.52,601.97v31.97c0,0.42-0.01,0.83-0.02,1.25c-0.01,0.38-0.02,0.74-0.04,1.12
						c-0.01,0.33-0.03,0.67-0.06,1c-0.01,0.24-0.03,0.48-0.05,0.72c-0.01,0.15-0.02,0.28-0.04,0.43c-0.02,0.26-0.04,0.53-0.08,0.8
						c-0.04,0.5-0.1,0.99-0.18,1.5c-0.01,0.13-0.03,0.25-0.05,0.38c-0.03,0.25-0.07,0.5-0.12,0.75v0.03
						c-0.01,0.05-0.02,0.09-0.02,0.15c-0.06,0.31-0.12,0.63-0.17,0.94c-0.09,0.5-0.19,1-0.29,1.5c-0.01,0.02-0.01,0.04-0.02,0.06
						c-0.01,0.07-0.02,0.15-0.04,0.22c-0.01,0.02-0.01,0.04-0.02,0.06c-0.04,0.22-0.09,0.44-0.15,0.65
						c-0.01,0.05-0.02,0.09-0.03,0.15c-0.02,0.12-0.04,0.23-0.08,0.35c-0.03,0.19-0.08,0.38-0.13,0.56
						c-0.03,0.11-0.05,0.22-0.09,0.32c-0.02,0.09-0.05,0.19-0.07,0.27c-0.22,0.86-0.47,1.7-0.73,2.53c-0.13,0.4-0.25,0.78-0.39,1.18
						c-0.01,0.04-0.03,0.08-0.04,0.13c-0.04,0.11-0.07,0.22-0.12,0.32c-0.08,0.23-0.17,0.46-0.24,0.69
						c-0.01,0.02-0.01,0.03-0.02,0.05c-0.04,0.11-0.08,0.21-0.13,0.32c-0.13,0.34-0.25,0.67-0.39,1c-0.16,0.41-0.32,0.81-0.49,1.2
						c-0.14,0.35-0.3,0.71-0.46,1.07c-0.02,0.06-0.05,0.11-0.07,0.18c-0.18,0.38-0.35,0.75-0.52,1.12
						c-0.18,0.39-0.37,0.78-0.57,1.16c-0.01,0.02-0.02,0.03-0.03,0.05c-0.37,0.74-0.77,1.5-1.16,2.22l-0.56,1
						c-1.61,2.77-3.4,5.38-5.35,7.79c-0.26,0.35-0.53,0.68-0.82,1c-0.39,0.47-0.79,0.93-1.18,1.38c-0.33,0.38-0.68,0.76-1.04,1.13
						c-0.01,0.02-0.02,0.03-0.04,0.05c-0.67,0.71-1.34,1.41-2.03,2.07c-0.35,0.35-0.69,0.67-1.05,0.99c-0.21,0.21-0.43,0.4-0.65,0.6
						c-0.36,0.32-0.71,0.64-1.08,0.94c-0.28,0.25-0.57,0.49-0.87,0.73c-0.75,0.62-1.51,1.21-2.27,1.77
						c-0.31,0.24-0.64,0.47-0.96,0.69c-0.52,0.38-1.06,0.73-1.59,1.08c-0.29,0.2-0.6,0.39-0.9,0.57c-0.05,0.03-0.09,0.06-0.14,0.08
						c-1.02,0.63-2.05,1.2-3.07,1.71c-0.26,0.13-0.52,0.26-0.78,0.39c-0.26,0.13-0.53,0.25-0.82,0.38
						c-0.32,0.15-0.64,0.28-0.96,0.41c-0.02,0.01-0.05,0.02-0.07,0.03c-0.14,0.06-0.27,0.12-0.41,0.16
						c-0.41,0.17-0.83,0.32-1.24,0.46c-0.51,0.19-1.04,0.35-1.55,0.49c-0.36,0.1-0.72,0.2-1.08,0.28c-0.02,0.01-0.04,0.02-0.07,0.02
						c-0.36,0.08-0.71,0.17-1.07,0.23c-0.09,0.02-0.19,0.04-0.28,0.05c-0.29,0.05-0.59,0.1-0.88,0.13
						c-0.42,0.06-0.84,0.11-1.26,0.14c-0.13,0.02-0.25,0.03-0.38,0.03h-0.05c-0.34,0.02-0.66,0.03-0.99,0.03h-0.04
						c-0.32,0-0.65-0.01-0.97-0.03c-0.13,0-0.25-0.01-0.38-0.03c-0.29-0.01-0.6-0.04-0.91-0.08c-0.06,0-0.14-0.01-0.2-0.02
						c-0.39-0.05-0.78-0.12-1.17-0.19c-0.33-0.05-0.67-0.13-1.02-0.21c-1.47-0.33-2.96-0.81-4.48-1.43
						c-0.34-0.13-0.68-0.27-1.02-0.42c-1.59-0.7-3.2-1.55-4.81-2.53c-0.09-0.05-0.18-0.12-0.27-0.17c-0.71-0.44-1.43-0.91-2.14-1.4
						c-0.4-0.28-0.8-0.56-1.19-0.86c-1.25-0.91-2.48-1.9-3.7-2.97c-0.33-0.3-0.67-0.61-1-0.92c-0.34-0.3-0.67-0.62-0.99-0.92
						c-0.07-0.07-0.15-0.15-0.22-0.22c-0.7-0.67-1.38-1.36-2.03-2.09c-0.05-0.04-0.09-0.09-0.14-0.14c-0.3-0.32-0.61-0.66-0.91-1
						c-0.84-0.94-1.65-1.91-2.43-2.93c-0.3-0.37-0.59-0.74-0.87-1.12c-1.06-1.41-2.06-2.87-3.01-4.39c-0.25-0.41-0.5-0.83-0.74-1.24
						c-0.29-0.49-0.57-0.99-0.86-1.5c-0.41-0.73-0.8-1.47-1.17-2.23c-0.61-1.18-1.16-2.4-1.68-3.63c-0.13-0.29-0.25-0.59-0.35-0.88
						c-0.17-0.38-0.31-0.76-0.45-1.14c-0.06-0.18-0.13-0.36-0.19-0.53c-0.09-0.24-0.18-0.48-0.26-0.72
						c-0.05-0.13-0.1-0.27-0.15-0.41c-0.19-0.56-0.37-1.12-0.54-1.68c-0.17-0.54-0.32-1.09-0.47-1.64
						c-0.17-0.59-0.32-1.18-0.46-1.79c-0.01-0.06-0.03-0.13-0.04-0.19c0-0.02-0.01-0.03-0.01-0.05c-0.2-0.82-0.37-1.65-0.52-2.49
						c-0.06-0.31-0.12-0.63-0.16-0.95c-0.15-0.82-0.25-1.65-0.35-2.49c-0.05-0.37-0.08-0.73-0.12-1.1
						c-0.04-0.39-0.07-0.76-0.09-1.15c-0.05-0.7-0.08-1.41-0.1-2.13c-0.01-0.42-0.02-0.83-0.02-1.25v-31.97
						c0-11.8,4.8-22.47,12.54-30.19c7.18-7.16,16.93-11.78,27.74-12.36c0.04-0.01,0.07-0.01,0.12-0.01
						c0.29-0.01,0.59-0.02,0.88-0.03c0.44-0.01,0.87-0.02,1.31-0.02h0.04c0.35,0,0.69,0.01,1.04,0.02h0.41
						c0.31,0.01,0.63,0.02,0.94,0.04h0.03c0.15,0.01,0.29,0.02,0.44,0.03c0.31,0.02,0.63,0.04,0.93,0.07
						c0.16,0.01,0.3,0.02,0.46,0.04c0.11,0.01,0.2,0.02,0.3,0.03c1.66,0.18,3.3,0.45,4.89,0.81c2.77,0.63,5.44,1.53,7.98,2.67
						c2.37,1.06,4.62,2.32,6.72,3.78c0.98,0.67,1.93,1.38,2.84,2.14c0.35,0.29,0.7,0.59,1.05,0.88v0.01
						c0.7,0.62,1.39,1.25,2.03,1.91c1.25,1.22,2.42,2.52,3.49,3.9c5.61,7.15,8.99,16.13,9.07,25.91
						C439.52,601.72,439.52,601.85,439.52,601.97"/>
				</g>
			</g>
			<g>
				<defs>
					<path id="SVGID_49_" d="M299.01,644c0,52.9,42.88,95.78,95.78,95.78c52.9,0,95.78-42.88,95.78-95.78
						c0-52.9-42.88-95.79-95.78-95.79S299.01,591.1,299.01,644"/>
				</defs>
				<clipPath id="SVGID_50_">
					<use xlink:href="#SVGID_49_"  style="overflow:visible;"/>
				</clipPath>
				<g class="st38">
					<path class="st39" d="M459.41,636c-4.76,20.38-18.07,36.54-35.24,45.59c3.03-4.21,5.63-8.8,7.68-13.72
						c1.48-3.52,2.67-7.2,3.57-11.04c0.43-1.83,0.78-3.67,1.05-5.51c3.35-22.17-4.31-43.84-19.23-58.95
						c-4.02-4.08-8.57-7.69-13.58-10.7c-1.19-0.71-2.41-1.4-3.65-2.04c-0.68-0.37-1.37-0.7-2.07-1.04
						c-0.35-0.17-0.69-0.34-1.04-0.49c-1.06,0.48-2.09,0.99-3.12,1.53c-1.25,0.64-2.46,1.33-3.65,2.04c-4.99,3-9.54,6.6-13.55,10.68
						c-14.92,15.09-22.58,36.74-19.26,58.92c0.27,1.85,0.63,3.71,1.06,5.56c0.9,3.83,2.1,7.51,3.57,11.02
						c2.05,4.93,4.64,9.53,7.68,13.74c-17.17-9.04-30.47-25.21-35.24-45.59c-2.69-11.55-2.34-23.1,0.57-33.8
						c2.83-10.45,8.06-20.09,15.24-28.13c8.44-9.48,19.58-16.73,32.58-20.42c0.25-0.08,0.5-0.15,0.75-0.22
						c3.88-0.76,7.76-1.17,11.6-1.26c0.59-0.01,1.18-0.02,1.77-0.02c0.35,0,0.69,0,1.04,0.01c0.24,0,0.48,0.01,0.72,0.01
						c3.84,0.08,7.71,0.49,11.6,1.26c0.25,0.07,0.5,0.14,0.75,0.22c13,3.7,24.14,10.94,32.58,20.42
						c7.18,8.04,12.42,17.68,15.24,28.13C461.74,612.9,462.1,624.46,459.41,636"/>
				</g>
			</g>
			<g>
				<defs>
					<path id="SVGID_51_" d="M299.01,644c0,52.9,42.88,95.78,95.78,95.78c52.9,0,95.78-42.88,95.78-95.78
						c0-52.9-42.88-95.79-95.78-95.79S299.01,591.1,299.01,644"/>
				</defs>
				<clipPath id="SVGID_52_">
					<use xlink:href="#SVGID_51_"  style="overflow:visible;"/>
				</clipPath>
				<g class="st40">
					<path class="st39" d="M452.9,634c-3.22,13.83-10.86,25.5-21.04,33.87c-3.26,2.67-6.77,5-10.49,6.96
						c-0.01,0.01-0.02,0.01-0.03,0.02c4.67-6.47,8.14-13.94,10.08-22.19c0.39-1.64,0.69-3.29,0.93-4.93
						c2.79-18.48-2.95-36.56-14.53-49.89c-0.18-0.22-0.38-0.44-0.58-0.66c-0.09-0.12-0.19-0.22-0.29-0.33
						c-0.01-0.01-0.02-0.02-0.03-0.03c-4.02-4.44-8.71-8.32-13.95-11.47c-1.65-0.99-3.37-1.93-5.13-2.76
						c-0.31-0.15-0.62-0.29-0.93-0.44c-2.09,0.96-4.11,2.03-6.07,3.2c-5.38,3.23-10.16,7.22-14.26,11.81
						c-11.95,13.38-17.95,31.75-15.14,50.53c0.24,1.67,0.56,3.33,0.95,4.98c1.93,8.25,5.4,15.72,10.08,22.19
						c-0.02-0.01-0.05-0.02-0.07-0.04c-3.71-1.96-7.21-4.28-10.46-6.96c-10.2-8.35-17.81-20.02-21.04-33.84
						c-2.41-10.34-2.09-20.7,0.51-30.27c2.53-9.36,7.22-18,13.66-25.21c7.56-8.49,17.53-14.98,29.18-18.29
						c0.22-0.07,0.45-0.13,0.67-0.2c3.47-0.68,6.95-1.05,10.4-1.13c0.52,0,1.06-0.01,1.58-0.01c0.31,0,0.62,0,0.93,0.01h0.65
						c3.43,0.08,6.91,0.45,10.39,1.13c0.23,0.06,0.45,0.13,0.68,0.2c11.64,3.31,21.63,9.8,29.19,18.29
						c6.43,7.2,11.12,15.85,13.65,25.21C454.99,613.31,455.31,623.66,452.9,634"/>
				</g>
			</g>
			<g>
				<defs>
					<path id="SVGID_53_" d="M299.01,644c0,52.9,42.88,95.78,95.78,95.78c52.9,0,95.78-42.88,95.78-95.78
						c0-52.9-42.88-95.79-95.78-95.79S299.01,591.1,299.01,644"/>
				</defs>
				<clipPath id="SVGID_54_">
					<use xlink:href="#SVGID_53_"  style="overflow:visible;"/>
				</clipPath>
				<g class="st41">
					<path class="st42" d="M407.22,662.84c-2.08-2.2-4.71-3.3-7.34-3.3c-1,0-2,0.16-2.97,0.49c-0.97-0.32-1.97-0.49-2.97-0.49
						c-2.63,0-5.26,1.1-7.35,3.3c-0.14,0.14-0.28,0.3-0.41,0.45c0.13,0.15,0.27,0.31,0.41,0.45c5.81,6.32,14.82,6.32,20.63,0
						c0.14-0.14,0.28-0.3,0.41-0.45C407.5,663.14,407.36,662.98,407.22,662.84"/>
				</g>
			</g>
			<g>
				<defs>
					<path id="SVGID_55_" d="M299.01,644c0,52.9,42.88,95.78,95.78,95.78c52.9,0,95.78-42.88,95.78-95.78
						c0-52.9-42.88-95.79-95.78-95.79S299.01,591.1,299.01,644"/>
				</defs>
				<clipPath id="SVGID_56_">
					<use xlink:href="#SVGID_55_"  style="overflow:visible;"/>
				</clipPath>
				<g class="st43">
					<path class="st39" d="M417.82,597.84c-0.18-0.22-0.38-0.44-0.58-0.66c-0.09-0.12-0.19-0.22-0.29-0.34
						c0.11,0.11,0.2,0.21,0.29,0.31C417.45,597.38,417.64,597.59,417.82,597.84"/>
				</g>
			</g>
			<g>
				<defs>
					<path id="SVGID_57_" d="M299.01,644c0,52.9,42.88,95.78,95.78,95.78c52.9,0,95.78-42.88,95.78-95.78
						c0-52.9-42.88-95.79-95.78-95.79S299.01,591.1,299.01,644"/>
				</defs>
				<clipPath id="SVGID_58_">
					<use xlink:href="#SVGID_57_"  style="overflow:visible;"/>
				</clipPath>
				<g class="st44">
					<path class="st39" d="M417.25,579.63v17.55c-0.09-0.12-0.19-0.22-0.29-0.33c-0.01-0.01-0.02-0.02-0.03-0.03
						c-2.12-2.09-5.05-3.4-8.27-3.4c-3.54,0-6.71,1.57-8.87,4.06c-1.48,1.72-4.23,1.72-5.72,0c-2.15-2.49-5.33-4.06-8.88-4.06
						c-3.41,0-6.48,1.46-8.62,3.78v-17.56H417.25z"/>
				</g>
			</g>
		</g>
	</g>
	<g>
		<path class="st45" d="M34.09,284.59v-19l-6.87,13.83h-4.04l-6.87-13.83v19H8.94v-31.89h7.99l8.26,16.66l8.31-16.66h7.95v31.89
			H34.09z"/>
		<path class="st45" d="M45.19,277.65c0-1.53,0.43-2.88,1.3-4.03c0.87-1.15,2.07-2.06,3.59-2.72s3.28-1,5.25-1
			c0.96,0,1.9,0.08,2.83,0.25c0.93,0.16,1.74,0.4,2.43,0.7v-1.03c0-1.25-0.39-2.2-1.17-2.87c-0.78-0.67-1.96-1-3.55-1
			c-1.32,0-2.55,0.22-3.71,0.67c-1.15,0.45-2.37,1.09-3.66,1.93l-2.16-4.58c1.56-1.02,3.18-1.78,4.87-2.29
			c1.69-0.51,3.48-0.76,5.37-0.76c3.53,0,6.28,0.83,8.24,2.49c1.96,1.66,2.94,4.06,2.94,7.2v6.03c0,0.7,0.11,1.2,0.34,1.48
			c0.22,0.28,0.62,0.45,1.19,0.5v5.97c-0.6,0.12-1.16,0.21-1.68,0.27c-0.52,0.06-0.98,0.09-1.37,0.09c-1.35,0-2.37-0.27-3.08-0.81
			c-0.7-0.54-1.15-1.27-1.33-2.2l-0.13-1.03c-1.05,1.35-2.3,2.37-3.75,3.08c-1.45,0.7-2.97,1.06-4.56,1.06
			c-1.56,0-2.96-0.33-4.2-0.97c-1.24-0.65-2.22-1.53-2.94-2.66C45.55,280.29,45.19,279.04,45.19,277.65z M59.47,278.49
			c0.33-0.26,0.6-0.55,0.81-0.87c0.21-0.32,0.31-0.62,0.31-0.91v-2.03c-0.6-0.23-1.27-0.41-2-0.54c-0.73-0.13-1.42-0.2-2.04-0.2
			c-1.32,0-2.41,0.28-3.28,0.84c-0.87,0.56-1.3,1.31-1.3,2.23c0,0.52,0.15,1,0.45,1.43c0.3,0.43,0.71,0.78,1.24,1.04
			c0.52,0.26,1.14,0.39,1.86,0.39c0.72,0,1.44-0.13,2.16-0.39C58.39,279.23,58.99,278.9,59.47,278.49z"/>
		<path class="st45" d="M87.95,267.17c-1.74,0-3.31,0.28-4.72,0.83c-1.41,0.55-2.42,1.37-3.05,2.45v14.15h-7.19v-23.31h6.6v4.49
			c0.81-1.59,1.86-2.83,3.14-3.73c1.29-0.9,2.64-1.36,4.04-1.39c0.33,0,0.58,0,0.74,0c0.16,0,0.31,0.02,0.43,0.04V267.17z"/>
		<path class="st45" d="M91.13,288.14c0.6,0.18,1.16,0.32,1.68,0.43c0.52,0.1,0.99,0.16,1.41,0.16c0.57,0,1.06-0.13,1.46-0.38
			c0.4-0.25,0.76-0.68,1.06-1.28c0.3-0.6,0.57-1.4,0.81-2.39l-8.98-23.39h7.41l5.48,16.08l4.67-16.08h6.78l-8.98,27.17
			c-0.42,1.28-1.06,2.41-1.93,3.39c-0.87,0.98-1.92,1.74-3.14,2.3c-1.23,0.55-2.58,0.83-4.04,0.83c-0.63,0-1.24-0.05-1.84-0.16
			c-0.6-0.11-1.21-0.28-1.84-0.52V288.14z"/>
		<path class="st45" d="M125.72,284.59v-31.89h13.61c1.53,0,2.93,0.31,4.2,0.92c1.27,0.61,2.37,1.44,3.3,2.47
			c0.93,1.03,1.65,2.19,2.16,3.48c0.51,1.29,0.76,2.6,0.76,3.95c0,1.83-0.43,3.56-1.28,5.21c-0.85,1.65-2.04,2.99-3.55,4.02
			c-1.51,1.03-3.3,1.55-5.37,1.55h-6.47v10.29H125.72z M133.08,267.89h6.02c0.57,0,1.09-0.16,1.57-0.49
			c0.48-0.33,0.87-0.82,1.17-1.48c0.3-0.66,0.45-1.47,0.45-2.42c0-0.99-0.17-1.8-0.52-2.45s-0.78-1.12-1.3-1.42
			c-0.53-0.3-1.07-0.45-1.64-0.45h-5.75V267.89z"/>
		<path class="st45" d="M163.85,285.04c-2.01,0-3.8-0.33-5.37-0.97c-1.57-0.65-2.9-1.53-3.97-2.66c-1.08-1.12-1.89-2.4-2.45-3.85
			c-0.55-1.45-0.83-2.97-0.83-4.56c0-1.62,0.28-3.16,0.83-4.6c0.55-1.45,1.37-2.73,2.45-3.85c1.08-1.12,2.4-2.01,3.97-2.65
			s3.36-0.97,5.37-0.97c2.01,0,3.79,0.33,5.34,0.97s2.87,1.53,3.95,2.65c1.08,1.12,1.9,2.4,2.47,3.85c0.57,1.45,0.85,2.98,0.85,4.6
			c0,1.59-0.29,3.11-0.85,4.56c-0.57,1.45-1.39,2.73-2.47,3.85c-1.08,1.12-2.4,2.01-3.95,2.66
			C167.63,284.72,165.85,285.04,163.85,285.04z M158.59,273.01c0,1.19,0.23,2.24,0.7,3.14c0.46,0.9,1.08,1.6,1.86,2.09
			c0.78,0.49,1.68,0.74,2.7,0.74c0.99,0,1.88-0.25,2.67-0.76c0.79-0.51,1.42-1.21,1.86-2.11c0.45-0.9,0.67-1.93,0.67-3.1
			c0-1.19-0.22-2.24-0.67-3.14c-0.45-0.9-1.07-1.6-1.86-2.09c-0.79-0.49-1.68-0.74-2.67-0.74c-1.02,0-1.92,0.25-2.7,0.74
			c-0.78,0.49-1.4,1.19-1.86,2.09C158.82,270.77,158.59,271.82,158.59,273.01z"/>
		<path class="st45" d="M194.93,285.04c-1.77,0-3.31-0.38-4.63-1.13c-1.32-0.75-2.35-1.78-3.1-3.08v13.32h-7.18v-32.88h6.24v3.84
			c0.87-1.33,1.96-2.36,3.28-3.1c1.32-0.74,2.86-1.11,4.63-1.11c1.59,0,3.05,0.31,4.38,0.93c1.33,0.62,2.49,1.48,3.48,2.57
			c0.99,1.09,1.75,2.36,2.29,3.81c0.54,1.45,0.81,3.01,0.81,4.69c0,2.3-0.43,4.37-1.3,6.2c-0.87,1.83-2.07,3.28-3.62,4.34
			C198.66,284.51,196.9,285.04,194.93,285.04z M192.5,278.98c0.78,0,1.49-0.17,2.13-0.5c0.64-0.33,1.2-0.78,1.68-1.33
			c0.48-0.55,0.85-1.2,1.1-1.94c0.25-0.74,0.38-1.52,0.38-2.33c0-0.84-0.14-1.61-0.43-2.31c-0.29-0.7-0.68-1.32-1.19-1.85
			c-0.51-0.54-1.11-0.95-1.8-1.24c-0.69-0.29-1.44-0.44-2.24-0.44c-0.48,0-0.97,0.07-1.46,0.22c-0.49,0.14-0.96,0.35-1.39,0.62
			c-0.43,0.27-0.83,0.6-1.19,0.97c-0.36,0.37-0.66,0.8-0.9,1.29v4.78c0.33,0.78,0.76,1.47,1.3,2.08c0.54,0.61,1.15,1.09,1.84,1.45
			S191.75,278.98,192.5,278.98z"/>
		<path class="st45" d="M223.67,285.04c-1.77,0-3.31-0.38-4.63-1.13c-1.32-0.75-2.35-1.78-3.1-3.08v13.32h-7.19v-32.88H215v3.84
			c0.87-1.33,1.96-2.36,3.28-3.1c1.32-0.74,2.86-1.11,4.63-1.11c1.59,0,3.05,0.31,4.38,0.93c1.33,0.62,2.49,1.48,3.48,2.57
			c0.99,1.09,1.75,2.36,2.29,3.81c0.54,1.45,0.81,3.01,0.81,4.69c0,2.3-0.43,4.37-1.3,6.2c-0.87,1.83-2.07,3.28-3.62,4.34
			C227.4,284.51,225.65,285.04,223.67,285.04z M221.24,278.98c0.78,0,1.49-0.17,2.13-0.5s1.2-0.78,1.68-1.33
			c0.48-0.55,0.85-1.2,1.1-1.94c0.25-0.74,0.38-1.52,0.38-2.33c0-0.84-0.14-1.61-0.43-2.31c-0.29-0.7-0.68-1.32-1.19-1.85
			c-0.51-0.54-1.11-0.95-1.8-1.24c-0.69-0.29-1.44-0.44-2.24-0.44c-0.48,0-0.97,0.07-1.46,0.22c-0.49,0.14-0.96,0.35-1.39,0.62
			c-0.43,0.27-0.83,0.6-1.19,0.97c-0.36,0.37-0.66,0.8-0.9,1.29v4.78c0.33,0.78,0.76,1.47,1.3,2.08c0.54,0.61,1.15,1.09,1.84,1.45
			S220.5,278.98,221.24,278.98z"/>
		<path class="st45" d="M237.5,258.32v-6.51h7.18v6.51H237.5z M237.5,284.59v-23.58h7.18v23.58H237.5z"/>
		<path class="st45" d="M272.35,284.59h-7.19v-12.98c0-1.52-0.29-2.63-0.88-3.32c-0.58-0.69-1.36-1.04-2.31-1.04
			c-0.66,0-1.33,0.17-2.02,0.52c-0.69,0.35-1.31,0.82-1.86,1.43c-0.55,0.61-0.98,1.3-1.28,2.07v13.32h-7.19v-23.31h6.47v3.98
			c0.6-0.91,1.35-1.7,2.24-2.34c0.9-0.65,1.93-1.14,3.1-1.48c1.17-0.34,2.44-0.51,3.82-0.51c1.53,0,2.76,0.27,3.7,0.82
			c0.94,0.55,1.66,1.26,2.16,2.15c0.49,0.88,0.82,1.84,0.99,2.85c0.16,1.02,0.25,2.01,0.25,2.99V284.59z"/>
		<path class="st45" d="M286.14,285.04c-2.01,0-3.97-0.33-5.88-0.99c-1.92-0.66-3.53-1.63-4.85-2.92l2.47-4.54
			c1.44,1.05,2.84,1.84,4.2,2.38c1.36,0.54,2.64,0.81,3.84,0.81c0.93,0,1.65-0.14,2.16-0.42c0.51-0.28,0.76-0.72,0.76-1.31
			c0-0.44-0.15-0.79-0.45-1.04c-0.3-0.25-0.76-0.48-1.37-0.69c-0.61-0.21-1.37-0.43-2.27-0.66c-1.8-0.59-3.29-1.17-4.49-1.72
			c-1.2-0.56-2.1-1.25-2.7-2.06c-0.6-0.81-0.9-1.87-0.9-3.16c0-1.56,0.4-2.93,1.19-4.09c0.79-1.17,1.92-2.07,3.39-2.72
			c1.47-0.65,3.22-0.97,5.25-0.97c1.62,0,3.19,0.25,4.74,0.76c1.54,0.51,2.99,1.36,4.33,2.56l-2.78,4.49
			c-1.35-0.93-2.55-1.6-3.59-2.02c-1.05-0.42-2.07-0.63-3.05-0.63c-0.51,0-0.97,0.06-1.39,0.18c-0.42,0.12-0.76,0.31-1.01,0.59
			c-0.25,0.28-0.38,0.64-0.38,1.08c0,0.44,0.13,0.79,0.38,1.06c0.25,0.26,0.66,0.49,1.21,0.68c0.55,0.19,1.25,0.42,2.09,0.68
			c1.95,0.56,3.56,1.12,4.85,1.7c1.29,0.57,2.25,1.28,2.9,2.12c0.64,0.84,0.97,1.95,0.97,3.33c0,2.35-0.86,4.19-2.58,5.53
			S289.11,285.04,286.14,285.04z"/>
	</g>
	<g>
		<path class="st45" d="M533.62,276.42c0,1.83-0.49,3.35-1.46,4.56c-0.97,1.21-2.28,2.12-3.93,2.72c-1.65,0.6-3.46,0.9-5.43,0.9
			h-15.54v-31.89h17.74c1.5,0,2.79,0.4,3.89,1.19c1.09,0.79,1.93,1.82,2.52,3.08c0.58,1.26,0.88,2.56,0.88,3.91
			c0,1.5-0.39,2.93-1.17,4.29c-0.78,1.36-1.92,2.39-3.41,3.08c1.83,0.54,3.27,1.5,4.33,2.87
			C533.09,272.5,533.62,274.26,533.62,276.42z M514.62,258.99v6.6h7.23c0.54,0,1.04-0.12,1.5-0.36c0.46-0.24,0.85-0.61,1.15-1.1
			c0.3-0.49,0.45-1.12,0.45-1.86c0-0.72-0.13-1.32-0.38-1.8c-0.25-0.48-0.59-0.85-1.01-1.1c-0.42-0.25-0.9-0.38-1.44-0.38H514.62z
			 M526.12,274.94c0-0.69-0.14-1.3-0.4-1.82s-0.62-0.94-1.06-1.26c-0.43-0.31-0.95-0.47-1.55-0.47h-8.49v6.96h8.17
			c0.63,0,1.19-0.15,1.68-0.45c0.49-0.3,0.89-0.7,1.19-1.21C525.97,276.18,526.12,275.6,526.12,274.94z"/>
		<path class="st45" d="M552.35,267.17c-1.74,0-3.31,0.28-4.72,0.83c-1.41,0.55-2.42,1.37-3.05,2.45v14.15h-7.18v-23.31h6.6v4.49
			c0.81-1.59,1.86-2.83,3.14-3.73c1.29-0.9,2.64-1.36,4.04-1.39c0.33,0,0.58,0,0.74,0s0.31,0.02,0.43,0.04V267.17z"/>
		<path class="st45" d="M555.13,276.21v-14.92h7.19v13.32c0,1.42,0.28,2.5,0.85,3.25c0.57,0.75,1.38,1.13,2.42,1.13
			c0.66,0,1.29-0.11,1.89-0.33c0.6-0.22,1.18-0.57,1.75-1.07c0.57-0.49,1.08-1.13,1.53-1.91v-14.39h7.19v15.35
			c0,0.71,0.11,1.2,0.34,1.48c0.23,0.28,0.62,0.45,1.19,0.51v5.97c-0.66,0.12-1.24,0.21-1.73,0.27c-0.49,0.06-0.94,0.09-1.33,0.09
			c-1.26,0-2.26-0.26-3.01-0.78s-1.21-1.25-1.39-2.2l-0.14-1.42c-1.08,1.54-2.42,2.67-4.02,3.4c-1.6,0.73-3.39,1.09-5.37,1.09
			c-2.4,0-4.22-0.75-5.48-2.26C555.76,281.27,555.13,279.08,555.13,276.21z"/>
		<path class="st45" d="M594.79,285.04c-2.01,0-3.79-0.33-5.34-0.97c-1.56-0.65-2.88-1.53-3.97-2.66c-1.09-1.12-1.92-2.4-2.49-3.85
			c-0.57-1.45-0.85-2.98-0.85-4.6c0-2.12,0.5-4.1,1.5-5.93c1-1.83,2.45-3.3,4.33-4.43c1.89-1.12,4.16-1.68,6.83-1.68
			c2.7,0,4.98,0.58,6.85,1.73c1.87,1.15,3.27,2.66,4.2,4.51l-7.01,2.11c-0.45-0.72-1.03-1.27-1.73-1.66
			c-0.71-0.39-1.49-0.58-2.36-0.58c-0.99,0-1.88,0.25-2.67,0.74c-0.79,0.49-1.42,1.18-1.89,2.05c-0.46,0.87-0.7,1.92-0.7,3.14
			c0,1.19,0.24,2.24,0.72,3.14c0.48,0.9,1.11,1.61,1.89,2.11s1.66,0.76,2.65,0.76c0.6,0,1.16-0.1,1.68-0.29
			c0.52-0.19,1-0.47,1.44-0.83c0.43-0.36,0.77-0.76,1.01-1.21l7.01,2.16c-0.57,1.2-1.39,2.27-2.45,3.21
			c-1.06,0.94-2.31,1.68-3.75,2.22C598.25,284.77,596.62,285.04,594.79,285.04z"/>
		<path class="st45" d="M620.16,285.04c-2.01,0-3.79-0.32-5.34-0.95c-1.56-0.64-2.88-1.5-3.97-2.6c-1.09-1.1-1.92-2.36-2.49-3.8
			c-0.57-1.44-0.85-2.94-0.85-4.51c0-2.23,0.5-4.27,1.5-6.11c1-1.84,2.45-3.32,4.33-4.45c1.89-1.13,4.16-1.7,6.83-1.7
			c2.66,0,4.93,0.56,6.81,1.68c1.87,1.12,3.3,2.59,4.29,4.4c0.99,1.81,1.48,3.78,1.48,5.9c0,0.41-0.02,0.82-0.07,1.22
			c-0.05,0.4-0.08,0.74-0.11,1.04h-17.43c0.09,1.02,0.38,1.88,0.88,2.58c0.49,0.7,1.13,1.23,1.91,1.59c0.78,0.36,1.6,0.55,2.47,0.55
			c1.08,0,2.09-0.25,3.03-0.76c0.94-0.51,1.59-1.2,1.95-2.07l6.11,1.71c-0.6,1.23-1.44,2.31-2.54,3.26
			c-1.09,0.94-2.38,1.68-3.86,2.22C623.6,284.77,621.96,285.04,620.16,285.04z M614.96,270.76h10.24c-0.12-0.94-0.4-1.76-0.85-2.46
			c-0.45-0.7-1.05-1.24-1.8-1.63c-0.75-0.39-1.57-0.58-2.47-0.58c-0.93,0-1.76,0.19-2.49,0.58c-0.73,0.39-1.33,0.93-1.77,1.63
			C615.36,269,615.07,269.82,614.96,270.76z"/>
		<path class="st45" d="M656,252.75h6.78l3.32,10.19l3.32-10.19h6.83l-5.43,14.82l3.23,8.49l7.99-23.35h8.04l-12.44,31.89h-6.38
			l-5.16-12.49l-5.12,12.49h-6.42l-12.4-31.89h7.99l8.04,23.35l3.14-8.49L656,252.75z"/>
		<path class="st45" d="M688.12,277.65c0-1.53,0.43-2.88,1.3-4.03c0.87-1.15,2.07-2.06,3.59-2.72c1.53-0.66,3.28-1,5.25-1
			c0.96,0,1.9,0.08,2.83,0.25c0.93,0.16,1.74,0.4,2.43,0.7v-1.03c0-1.25-0.39-2.2-1.17-2.87c-0.78-0.67-1.96-1-3.55-1
			c-1.32,0-2.55,0.22-3.71,0.67c-1.15,0.45-2.37,1.09-3.66,1.93l-2.16-4.58c1.56-1.02,3.18-1.78,4.87-2.29
			c1.69-0.51,3.48-0.76,5.37-0.76c3.53,0,6.28,0.83,8.24,2.49c1.96,1.66,2.94,4.06,2.94,7.2v6.03c0,0.7,0.11,1.2,0.34,1.48
			c0.22,0.28,0.62,0.45,1.19,0.5v5.97c-0.6,0.12-1.16,0.21-1.68,0.27c-0.52,0.06-0.98,0.09-1.37,0.09c-1.35,0-2.37-0.27-3.08-0.81
			c-0.71-0.54-1.15-1.27-1.33-2.2l-0.13-1.03c-1.05,1.35-2.3,2.37-3.75,3.08c-1.45,0.7-2.97,1.06-4.56,1.06
			c-1.56,0-2.96-0.33-4.2-0.97c-1.24-0.65-2.22-1.53-2.94-2.66C688.48,280.29,688.12,279.04,688.12,277.65z M702.4,278.49
			c0.33-0.26,0.6-0.55,0.81-0.87c0.21-0.32,0.31-0.62,0.31-0.91v-2.03c-0.6-0.23-1.27-0.41-2-0.54c-0.73-0.13-1.42-0.2-2.04-0.2
			c-1.32,0-2.41,0.28-3.28,0.84c-0.87,0.56-1.3,1.31-1.3,2.23c0,0.52,0.15,1,0.45,1.43c0.3,0.43,0.71,0.78,1.24,1.04
			c0.52,0.26,1.14,0.39,1.86,0.39c0.72,0,1.44-0.13,2.16-0.39C701.32,279.23,701.92,278.9,702.4,278.49z"/>
		<path class="st45" d="M715.11,288.14c0.6,0.18,1.16,0.32,1.68,0.43c0.52,0.1,0.99,0.16,1.41,0.16c0.57,0,1.06-0.13,1.46-0.38
			c0.4-0.25,0.76-0.68,1.06-1.28c0.3-0.6,0.57-1.4,0.81-2.39l-8.98-23.39h7.41l5.48,16.08l4.67-16.08h6.78l-8.98,27.17
			c-0.42,1.28-1.06,2.41-1.93,3.39c-0.87,0.98-1.92,1.74-3.14,2.3c-1.23,0.55-2.58,0.83-4.04,0.83c-0.63,0-1.24-0.05-1.84-0.16
			c-0.6-0.11-1.21-0.28-1.84-0.52V288.14z"/>
		<path class="st45" d="M762.45,284.59h-7.19v-12.98c0-1.52-0.29-2.63-0.88-3.32c-0.58-0.69-1.36-1.04-2.31-1.04
			c-0.66,0-1.33,0.17-2.02,0.52c-0.69,0.35-1.31,0.82-1.86,1.43c-0.55,0.61-0.98,1.3-1.28,2.07v13.32h-7.18v-23.31h6.47v3.98
			c0.6-0.91,1.35-1.7,2.24-2.34c0.9-0.65,1.93-1.14,3.1-1.48c1.17-0.34,2.44-0.51,3.82-0.51c1.53,0,2.76,0.27,3.7,0.82
			c0.94,0.55,1.66,1.26,2.16,2.15c0.49,0.88,0.82,1.84,0.99,2.85c0.16,1.02,0.25,2.01,0.25,2.99V284.59z"/>
		<path class="st45" d="M778.48,285.04c-2.01,0-3.79-0.32-5.34-0.95c-1.56-0.64-2.88-1.5-3.97-2.6c-1.09-1.1-1.92-2.36-2.49-3.8
			c-0.57-1.44-0.85-2.94-0.85-4.51c0-2.23,0.5-4.27,1.5-6.11c1-1.84,2.45-3.32,4.33-4.45c1.89-1.13,4.16-1.7,6.83-1.7
			s4.93,0.56,6.81,1.68c1.87,1.12,3.3,2.59,4.29,4.4c0.99,1.81,1.48,3.78,1.48,5.9c0,0.41-0.02,0.82-0.07,1.22
			c-0.05,0.4-0.08,0.74-0.11,1.04h-17.43c0.09,1.02,0.38,1.88,0.88,2.58c0.49,0.7,1.13,1.23,1.91,1.59c0.78,0.36,1.6,0.55,2.47,0.55
			c1.08,0,2.09-0.25,3.03-0.76c0.94-0.51,1.59-1.2,1.95-2.07l6.11,1.71c-0.6,1.23-1.44,2.31-2.54,3.26
			c-1.09,0.94-2.38,1.68-3.86,2.22C781.91,284.77,780.28,285.04,778.48,285.04z M773.27,270.76h10.24c-0.12-0.94-0.4-1.76-0.85-2.46
			c-0.45-0.7-1.05-1.24-1.8-1.63c-0.75-0.39-1.57-0.58-2.47-0.58c-0.93,0-1.76,0.19-2.49,0.58c-0.73,0.39-1.33,0.93-1.77,1.63
			S773.39,269.82,773.27,270.76z"/>
	</g>
	<g>
		<path class="st45" d="M294.27,785.83c0.3,0.21,0.94,0.5,1.91,0.88c0.97,0.37,2.12,0.56,3.44,0.56c1.05,0,1.91-0.18,2.58-0.53
			c0.67-0.35,1.18-0.9,1.53-1.62s0.58-1.67,0.7-2.84c0.12-1.17,0.18-2.59,0.18-4.25v-16.31h7.37v16.08c0,2.38-0.14,4.54-0.4,6.5
			c-0.27,1.96-0.82,3.66-1.64,5.1c-0.82,1.44-2.06,2.54-3.71,3.3c-1.65,0.76-3.85,1.14-6.6,1.14c-1.41,0-2.68-0.16-3.82-0.49
			c-1.14-0.33-2.19-0.82-3.14-1.48L294.27,785.83z"/>
		<path class="st45" d="M315.2,786.66c0-1.53,0.43-2.88,1.3-4.03c0.87-1.15,2.07-2.06,3.59-2.72c1.53-0.66,3.28-1,5.25-1
			c0.96,0,1.9,0.08,2.83,0.25c0.93,0.16,1.74,0.4,2.43,0.7v-1.03c0-1.25-0.39-2.2-1.17-2.87c-0.78-0.67-1.96-1-3.55-1
			c-1.32,0-2.55,0.22-3.71,0.67c-1.15,0.45-2.37,1.09-3.66,1.93l-2.16-4.58c1.56-1.02,3.18-1.78,4.87-2.29
			c1.69-0.51,3.48-0.76,5.37-0.76c3.53,0,6.28,0.83,8.24,2.49c1.96,1.66,2.94,4.06,2.94,7.2v6.03c0,0.7,0.11,1.2,0.34,1.48
			c0.22,0.28,0.62,0.45,1.19,0.5v5.97c-0.6,0.12-1.16,0.21-1.68,0.27s-0.98,0.09-1.37,0.09c-1.35,0-2.37-0.27-3.08-0.81
			c-0.7-0.54-1.15-1.27-1.33-2.2l-0.13-1.03c-1.05,1.35-2.3,2.37-3.75,3.08c-1.45,0.7-2.97,1.06-4.56,1.06
			c-1.56,0-2.96-0.33-4.2-0.97c-1.24-0.65-2.22-1.53-2.94-2.66C315.56,789.3,315.2,788.05,315.2,786.66z M329.48,787.5
			c0.33-0.26,0.6-0.55,0.81-0.87s0.31-0.62,0.31-0.91v-2.03c-0.6-0.23-1.27-0.41-2-0.54c-0.73-0.13-1.42-0.2-2.04-0.2
			c-1.32,0-2.41,0.28-3.28,0.84c-0.87,0.56-1.3,1.31-1.3,2.23c0,0.52,0.15,1,0.45,1.43c0.3,0.43,0.71,0.78,1.24,1.04
			c0.52,0.26,1.14,0.39,1.86,0.39c0.72,0,1.44-0.13,2.16-0.39C328.4,788.24,329,787.9,329.48,787.5z"/>
		<path class="st45" d="M365.72,793.6h-7.19v-12.98c0-1.52-0.29-2.63-0.88-3.32c-0.58-0.69-1.36-1.04-2.31-1.04
			c-0.66,0-1.33,0.17-2.02,0.52c-0.69,0.35-1.31,0.82-1.86,1.43c-0.55,0.61-0.98,1.3-1.28,2.07v13.32H343v-23.31h6.47v3.98
			c0.6-0.91,1.35-1.7,2.24-2.34c0.9-0.65,1.93-1.14,3.1-1.48c1.17-0.34,2.44-0.51,3.82-0.51c1.53,0,2.76,0.27,3.7,0.82
			c0.94,0.55,1.66,1.26,2.16,2.15c0.49,0.88,0.82,1.84,0.99,2.85c0.16,1.02,0.25,2.01,0.25,2.99V793.6z"/>
		<path class="st45" d="M381.76,794.05c-2.01,0-3.79-0.32-5.34-0.95c-1.56-0.64-2.88-1.5-3.97-2.6c-1.09-1.1-1.92-2.36-2.49-3.8
			c-0.57-1.44-0.85-2.94-0.85-4.51c0-2.23,0.5-4.27,1.5-6.11c1-1.84,2.45-3.32,4.33-4.45c1.89-1.13,4.16-1.7,6.83-1.7
			s4.93,0.56,6.81,1.68c1.87,1.12,3.3,2.59,4.29,4.4c0.99,1.81,1.48,3.78,1.48,5.9c0,0.41-0.02,0.82-0.07,1.22
			c-0.05,0.4-0.08,0.74-0.11,1.04h-17.43c0.09,1.02,0.38,1.88,0.88,2.58c0.49,0.7,1.13,1.23,1.91,1.59c0.78,0.36,1.6,0.55,2.47,0.55
			c1.08,0,2.09-0.25,3.03-0.76c0.94-0.51,1.59-1.2,1.95-2.07l6.11,1.71c-0.6,1.23-1.44,2.31-2.54,3.26
			c-1.09,0.94-2.38,1.68-3.86,2.22C385.19,793.78,383.55,794.05,381.76,794.05z M376.55,779.77h10.24c-0.12-0.94-0.4-1.76-0.85-2.46
			c-0.45-0.7-1.05-1.24-1.8-1.63c-0.75-0.39-1.57-0.58-2.47-0.58c-0.93,0-1.76,0.19-2.49,0.58c-0.73,0.38-1.33,0.93-1.77,1.63
			C376.95,778,376.67,778.82,376.55,779.77z"/>
		<path class="st45" d="M408.66,793.6v-31.89h11.9c3.5,0,6.43,0.71,8.78,2.13c2.35,1.42,4.12,3.34,5.32,5.75
			c1.2,2.41,1.8,5.08,1.8,8.02c0,3.23-0.66,6.05-1.98,8.44c-1.32,2.4-3.17,4.25-5.55,5.57c-2.38,1.32-5.17,1.98-8.38,1.98H408.66z
			 M428.96,777.61c0-1.86-0.33-3.5-0.99-4.92c-0.66-1.42-1.62-2.53-2.87-3.32c-1.26-0.79-2.77-1.19-4.54-1.19h-4.54v18.95h4.54
			c1.8,0,3.32-0.41,4.56-1.24c1.24-0.82,2.19-1.96,2.85-3.41S428.96,779.41,428.96,777.61z"/>
		<path class="st45" d="M451.46,794.05c-2.01,0-3.8-0.33-5.37-0.97c-1.57-0.65-2.9-1.53-3.97-2.66c-1.08-1.12-1.89-2.4-2.45-3.85
			s-0.83-2.97-0.83-4.56c0-1.62,0.28-3.16,0.83-4.6s1.37-2.73,2.45-3.85c1.08-1.12,2.4-2.01,3.97-2.65
			c1.57-0.65,3.36-0.97,5.37-0.97c2.01,0,3.79,0.33,5.34,0.97c1.56,0.65,2.87,1.53,3.95,2.65c1.08,1.12,1.9,2.4,2.47,3.85
			s0.85,2.98,0.85,4.6c0,1.59-0.29,3.11-0.85,4.56s-1.39,2.73-2.47,3.85c-1.08,1.12-2.4,2.01-3.95,2.66
			C455.25,793.72,453.46,794.05,451.46,794.05z M446.2,782.01c0,1.19,0.23,2.24,0.7,3.14c0.46,0.9,1.08,1.6,1.86,2.09
			s1.68,0.74,2.7,0.74c0.99,0,1.88-0.25,2.67-0.76c0.79-0.51,1.42-1.21,1.86-2.11c0.45-0.9,0.67-1.93,0.67-3.1
			c0-1.19-0.22-2.24-0.67-3.14c-0.45-0.9-1.07-1.6-1.86-2.09c-0.79-0.49-1.68-0.74-2.67-0.74c-1.02,0-1.92,0.25-2.7,0.74
			c-0.78,0.49-1.4,1.19-1.86,2.09C446.44,779.77,446.2,780.82,446.2,782.01z"/>
		<path class="st45" d="M478.9,794.05c-2.01,0-3.79-0.32-5.34-0.95c-1.56-0.64-2.88-1.5-3.97-2.6c-1.09-1.1-1.92-2.36-2.49-3.8
			c-0.57-1.44-0.85-2.94-0.85-4.51c0-2.23,0.5-4.27,1.5-6.11c1-1.84,2.45-3.32,4.33-4.45c1.89-1.13,4.16-1.7,6.83-1.7
			s4.93,0.56,6.81,1.68c1.87,1.12,3.3,2.59,4.29,4.4c0.99,1.81,1.48,3.78,1.48,5.9c0,0.41-0.02,0.82-0.07,1.22
			c-0.05,0.4-0.08,0.74-0.11,1.04h-17.43c0.09,1.02,0.38,1.88,0.88,2.58c0.49,0.7,1.13,1.23,1.91,1.59c0.78,0.36,1.6,0.55,2.47,0.55
			c1.08,0,2.09-0.25,3.03-0.76c0.94-0.51,1.59-1.2,1.95-2.07l6.11,1.71c-0.6,1.23-1.44,2.31-2.54,3.26
			c-1.09,0.94-2.38,1.68-3.86,2.22C482.34,793.78,480.7,794.05,478.9,794.05z M473.69,779.77h10.24c-0.12-0.94-0.4-1.76-0.85-2.46
			c-0.45-0.7-1.05-1.24-1.8-1.63c-0.75-0.39-1.57-0.58-2.47-0.58c-0.93,0-1.76,0.19-2.49,0.58c-0.73,0.38-1.33,0.93-1.77,1.63
			C474.1,778,473.81,778.82,473.69,779.77z"/>
	</g>
	<g>
		<polygon class="st46" points="642.44,440.11 137.13,440.11 137.13,316.84 146.26,316.84 146.26,430.97 633.3,430.97 633.3,322.19 
			642.44,322.19 		"/>
	</g>
	<g>
		<rect x="385.21" y="431.26" class="st46" width="9.14" height="83.41"/>
	</g>
</g>
</svg>
